<?xml version="1.0" encoding="UTF-8" standalone="no"?>
<svg
   class="h-[512px] w-[512px]"
   fill="none"
   viewBox="0 0 592.99999 335"
   stroke-width="1.5"
   stroke="currentColor"
   version="1.1"
   id="svg2"
   xml:space="preserve"
   width="593"
   height="335"
   xmlns="http://www.w3.org/2000/svg"
   xmlns:svg="http://www.w3.org/2000/svg"><defs
     id="defs2" /><g
     id="g2"
     transform="scale(1.5)"><rect
       style="fill:#13171f;fill-opacity:1;stroke:none;stroke-width:1.22279;paint-order:fill markers stroke"
       id="rect2"
       width="395.33334"
       height="223.33333"
       x="9.3258734e-15"
       y="1.6653345e-15" /><path
       stroke-linecap="round"
       stroke-linejoin="round"
       d="m 167.64353,77.860048 a 13.406806,13.406806 0 0 1 -9.52406,6.123022 c -2.20545,0.313406 -4.39349,0.650027 -6.58152,1.015667 -6.11142,1.015667 -10.45847,6.395801 -10.45847,12.588469 v 48.902924 a 13.058578,13.058578 0 0 0 13.05857,13.05858 h 87.05719 a 13.058578,13.058578 0 0 0 13.05858,-13.05858 V 97.587206 c 0,-6.192668 -4.35286,-11.572802 -10.45847,-12.588469 a 277.79948,277.79948 0 0 0 -6.58153,-1.015667 13.406806,13.406806 0 0 1 -9.51825,-6.123022 l -4.77073,-7.637817 a 12.721957,12.721957 0 0 0 -10.07542,-6.030161 283.07514,283.07514 0 0 0 -30.36555,0 12.721957,12.721957 0 0 0 -10.07541,6.030161 z"
       id="path1"
       style="stroke:#ffffff;stroke-width:8.70572;stroke-opacity:1" /><path
       stroke-linecap="round"
       stroke-linejoin="round"
       d="m 223.7838,116.02011 a 26.117155,26.117155 0 1 1 -52.23431,0 26.117155,26.117155 0 0 1 52.23431,0 z m 13.05858,-13.05857 h 0.0464 v 0.0464 h -0.0464 z"
       id="path2"
       style="stroke:#ffffff;stroke-width:8.70572;stroke-opacity:1" /></g></svg>
