<?xml version="1.0" encoding="UTF-8" standalone="no"?>
<svg
   class="h-[512px] w-[512px]"
   fill="none"
   viewBox="0 0 592.99999 335"
   stroke-width="1.5"
   stroke="currentColor"
   version="1.1"
   id="svg2"
   xml:space="preserve"
   width="593"
   height="335"
   xmlns="http://www.w3.org/2000/svg"
   xmlns:svg="http://www.w3.org/2000/svg"><defs
     id="defs2" /><rect
     style="fill:#0b0d0f;fill-opacity:1;stroke:none;stroke-width:1.83419;paint-order:fill markers stroke"
     id="rect2"
     width="593"
     height="335"
     x="-2.35899e-22"
     y="0" /><path
     stroke-linecap="round"
     stroke-linejoin="round"
     d="m 251.46529,116.79007 a 20.110209,20.110209 0 0 1 -14.28608,9.18454 c -3.30818,0.4701 -6.59024,0.97504 -9.87229,1.5235 -9.16713,1.5235 -15.6877,9.5937 -15.6877,18.8827 v 73.35439 a 19.587867,19.587867 0 0 0 19.58785,19.58787 h 130.58579 a 19.587867,19.587867 0 0 0 19.58787,-19.58787 v -73.35439 c 0,-9.289 -6.52929,-17.3592 -15.6877,-18.8827 a 416.69922,416.69922 0 0 0 -9.8723,-1.52351 20.110209,20.110209 0 0 1 -14.27737,-9.18453 l -7.1561,-11.45672 a 19.082935,19.082935 0 0 0 -15.11313,-9.045245 424.61271,424.61271 0 0 0 -45.54832,0 19.082935,19.082935 0 0 0 -15.11312,9.045245 z"
     id="path1"
     style="stroke:#c2c7d0;stroke-width:13.0586;stroke-opacity:1" /><path
     stroke-linecap="round"
     stroke-linejoin="round"
     d="m 335.6757,174.03016 a 39.175733,39.175733 0 1 1 -78.35146,0 39.175733,39.175733 0 0 1 78.35146,0 z m 19.58787,-19.58785 h 0.0696 v 0.0696 h -0.0696 z"
     id="path2"
     style="stroke:#c2c7d0;stroke-width:13.0586;stroke-opacity:1" /></svg>
