<?xml version="1.0" encoding="UTF-8" standalone="no"?>
<svg
   viewBox="0 0 593 335"
   version="1.1"
   id="svg2"
   width="593"
   height="335"
   xml:space="preserve"
   xmlns="http://www.w3.org/2000/svg"
   xmlns:svg="http://www.w3.org/2000/svg"><defs
     id="defs2" /><rect
     style="fill:#fbfbfc;fill-opacity:1;stroke:none;stroke-width:1.83419;paint-order:fill markers stroke"
     id="rect2"
     width="593"
     height="335"
     x="0"
     y="0" /><rect
     style="fill:#ffffff;stroke-width:0.5;paint-order:fill markers stroke"
     id="rect1"
     width="80.295921"
     height="54.253494"
     x="252.68304"
     y="113.58458" /><path
     style="fill:#fdfdfd;stroke-width:0.274286"
     d="m 252.68305,156.01575 v -11.82213 l 1.02576,-0.10427 c 4.3311,-0.44024 8.61235,-0.63227 14.09637,-0.63227 h 3.5791 l 0.31989,0.40574 c 0.17593,0.22316 0.30697,0.41298 0.29117,0.42183 -0.0158,0.009 -0.97814,0.0492 -2.13855,0.0896 -5.74782,0.20018 -11.19198,0.64375 -15.47392,1.26073 -1.45501,0.20965 -1.71178,0.27403 -1.51812,0.38066 0.0691,0.0381 0.82261,-0.0373 1.98704,-0.19884 4.62536,-0.64155 10.65163,-1.10924 15.6932,-1.21791 l 1.77387,-0.0382 0.30739,0.31897 c 1.04869,1.08817 3.38802,2.3244 5.85086,3.09191 2.29443,0.71503 5.83194,1.31704 9.28048,1.57935 l 1.48852,0.11322 -0.67775,0.36304 c -0.97353,0.52148 -1.77261,1.27647 -2.16703,2.04743 -0.18198,0.35571 -0.21321,0.37545 -0.80554,0.50897 -1.2165,0.27423 -2.44436,0.41489 -3.66417,0.41976 -2.78947,0.0111 -4.53725,-0.57618 -6.50685,-2.18649 -1.09857,-0.89817 -1.99899,-1.39345 -3.14459,-1.72969 -1.1614,-0.34086 -2.01126,-0.45998 -3.02229,-0.42361 -1.00145,0.036 -1.45233,0.16721 -1.45233,0.42253 0,0.23368 0.56237,0.51683 1.71853,0.86527 1.69311,0.51027 2.43611,0.96791 3.95714,2.43738 1.71383,1.65574 3.35615,2.42017 6.10581,2.842 0.786,0.12058 1.24148,0.14361 2.81349,0.14227 1.19627,-10e-4 2.18351,-0.0372 2.72557,-0.0998 l 0.84991,-0.0982 v 1.69724 1.69724 l -0.26377,0.0276 c -2.35704,0.2464 -5.57514,0.7309 -7.12165,1.07222 -3.03281,0.66935 -5.28095,1.58275 -5.9952,2.43579 -0.38225,0.45652 -0.37758,1.1814 0.0105,1.62566 1.08014,1.23663 4.71838,2.37632 9.9705,3.12329 2.37079,0.33718 4.53906,0.53478 8.61631,0.78521 1.95905,0.12033 7.05615,0.16062 9.3783,0.0741 6.83685,-0.25464 12.12778,-0.88836 15.96281,-1.91196 2.42266,-0.64664 3.79308,-1.25085 4.50395,-1.98577 0.35727,-0.36937 0.39918,-0.46608 0.3928,-0.90636 -0.008,-0.5592 -0.28285,-0.93304 -1.05389,-1.43409 -1.88958,-1.22791 -6.76782,-2.34062 -12.8503,-2.93111 l -0.43003,-0.0417 -0.0474,-2.87312 c -0.0446,-2.69934 -0.0628,-2.90492 -0.30256,-3.39885 -0.41806,-0.86142 -0.99636,-1.44289 -2.01164,-2.02268 -0.76202,-0.43517 -0.85925,-0.51504 -0.65379,-0.53699 0.13276,-0.0142 0.71615,-0.0602 1.29644,-0.10217 7.48419,-0.54183 12.42647,-2.07104 14.71647,-4.55349 l 0.40603,-0.44015 0.99644,-1.8e-4 c 4.112,-4.1e-4 11.97436,0.58361 16.70509,1.24152 1.16442,0.16194 1.91789,0.2376 1.98703,0.19954 0.20779,-0.11442 -0.0977,-0.18132 -2.04564,-0.44798 -4.82673,-0.66076 -9.64268,-1.03001 -16.0158,-1.22799 l -1.42084,-0.0441 0.24314,-0.41923 0.24314,-0.41922 h 3.81733 c 5.7307,0 9.94156,0.18574 14.33462,0.63227 l 1.02575,0.10427 v 11.82213 11.82213 h -43.84357 -43.84353 z m 16.45538,-4.25135 c 0.0989,-0.0213 0.23343,-0.13217 0.29903,-0.24644 0.0984,-0.17134 0.0506,-0.34027 -0.27223,-0.9635 l -0.39148,-0.75574 -0.25598,0.49287 c -0.14078,0.27108 -0.30587,0.57861 -0.36686,0.6834 -0.3217,0.55269 0.18925,0.96113 0.98752,0.78941 z m 21.06013,4.81954 c 0.002,-1.69272 0.0959,-2.34022 0.41726,-2.8878 0.18737,-0.3193 0.57144,-0.64446 0.76121,-0.64446 0.065,0 0.10872,1.02868 0.10872,2.55473 v 2.55472 l -0.36633,0.0411 c -0.20149,0.0226 -0.49164,0.0411 -0.64476,0.0411 h -0.27842 z m 11.92569,1.61104 -0.55683,-0.0246 v -2.53196 c 0,-2.68265 0.0139,-2.74348 0.51736,-2.26024 0.57779,0.55458 0.68227,0.9737 0.74186,2.97577 0.031,1.0402 0.0109,1.88403 -0.0447,1.8775 -0.0555,-0.007 -0.35147,-0.0229 -0.65773,-0.0364 z m -6.03851,-2.93108 0.0306,-2.83653 0.27021,-0.0215 c 0.61559,-0.0489 0.609,-0.0802 0.609,2.88818 v 2.75205 l -0.26376,0.005 c -0.14507,0.003 -0.35664,0.0149 -0.47016,0.0272 -0.19483,0.0209 -0.20467,-0.1367 -0.17584,-2.81441 z m -11.32162,-9.86746 c -3.37363,-0.72299 -4.25247,-4.2026 -1.47695,-5.84774 0.79826,-0.47317 1.46296,-0.65147 2.40995,-0.64647 0.93135,0.005 1.63503,0.19025 2.38342,0.62778 1.09588,0.64068 1.64209,1.52108 1.64505,2.65152 0.003,1.14632 -0.54481,2.02415 -1.66669,2.67078 -0.9255,0.53345 -2.29176,0.75909 -3.29478,0.54413 z m 2.51455,-1.18873 c 0.56472,-0.21938 0.98491,-0.56601 1.30633,-1.07761 0.34713,-0.55254 0.25455,-1.53006 -0.19776,-2.08793 -1.31275,-1.61912 -4.27137,-1.25842 -4.94863,0.60331 -0.40295,1.10769 0.39236,2.30663 1.7754,2.67644 0.65176,0.17426 1.43339,0.13103 2.06466,-0.11421 z m -2.87688,-2.69396 c -0.24874,-0.13943 -0.23285,-0.44313 0.0301,-0.57657 0.46854,-0.23769 1.19237,-0.0541 1.19237,0.30245 0,0.22381 -0.28626,0.37739 -0.70338,0.37739 -0.18422,0 -0.41783,-0.0465 -0.51916,-0.10327 z m 22.49954,3.9227 c -1.41834,-0.20811 -2.66747,-1.05374 -3.16264,-2.14104 -0.21891,-0.48065 -0.2285,-1.62464 -0.0182,-2.17349 0.21464,-0.5603 0.84897,-1.24404 1.50372,-1.62087 1.99915,-1.15056 4.7977,-0.61486 5.94466,1.13793 1.1653,1.78084 0.10556,3.96582 -2.24769,4.6343 -0.62236,0.1768 -1.4637,0.24476 -2.01982,0.16317 z m 1.19547,-1.13135 c 0.67085,-0.18205 1.3535,-0.7183 1.62185,-1.27404 0.54411,-1.12685 -0.22275,-2.49735 -1.62481,-2.90379 -0.87118,-0.25254 -2.13145,-0.0494 -2.77287,0.44699 -1.25752,0.97315 -1.19686,2.52808 0.13174,3.37635 0.74186,0.47365 1.72117,0.60494 2.64409,0.35449 z m -2.16584,-2.79038 c -0.50232,-0.19724 -0.2534,-0.62058 0.3649,-0.62058 0.46717,0 0.66408,0.10022 0.66408,0.338 0,0.17274 -0.35538,0.38488 -0.64476,0.38488 -0.068,0 -0.24092,-0.046 -0.38422,-0.1023 z m -53.24791,-6.64055 v -9.09481 h 10.99618 10.99617 l -0.37883,0.64074 c -0.58083,0.9824 -0.7568,1.53868 -0.82634,2.61223 -0.0676,1.04315 0.0909,1.82115 0.51803,2.54296 l 0.20626,0.34856 -0.89627,0.64679 c -1.52701,1.10194 -2.5768,2.394 -3.04484,3.74748 -0.59225,1.71269 -0.30841,4.44032 0.65625,6.3064 0.16254,0.31442 0.29558,0.57863 0.29564,0.58712 7e-5,0.008 -1.09455,0.005 -2.43249,-0.007 -2.70429,-0.0246 -6.88425,0.0732 -9.57703,0.224 -1.77549,0.0995 -5.25542,0.37605 -6.07312,0.4827 l -0.43961,0.0573 z m 86.86647,9.00593 c -3.85694,-0.4406 -10.31335,-0.72301 -15.43867,-0.67531 -1.50248,0.014 -2.73109,0.01 -2.73024,-0.009 0.001,-0.0189 0.10583,-0.31537 0.2333,-0.65874 0.70171,-1.89028 0.81318,-5.05813 0.23067,-6.55572 -0.54407,-1.39877 -1.97142,-2.94898 -3.69381,-4.01176 l -0.67142,-0.41429 0.22073,-0.5386 c 0.17116,-0.41761 0.22074,-0.79693 0.22074,-1.68864 0,-1.27606 -0.14202,-1.78929 -0.80469,-2.90795 l -0.37956,-0.64073 h 11.81677 11.81678 v 9.10173 c 0,5.00595 -0.0132,9.0982 -0.0293,9.0939 -0.0161,-0.004 -0.37219,-0.047 -0.79129,-0.0949 z m -54.56996,-16.06837 c -2.39253,-0.87771 -4.99705,-1.56096 -7.12635,-1.86947 l -1.07967,-0.15644 h 18.93244 18.93244 l -1.07653,0.15599 c -2.04575,0.29643 -4.39713,0.90061 -6.78939,1.74451 l -1.06665,0.37628 -0.98484,-0.1219 c -5.8242,-0.72084 -12.42195,-0.63782 -18.51055,0.23293 -0.0967,0.0138 -0.65062,-0.14903 -1.2309,-0.3619 z"
     id="path8" /><path
     style="fill:#f4c9ae"
     d="m 295.01968,218.2379 c 7.2e-4,-1.936 0.0534,-2.68674 0.11712,-1.66832 0.0637,1.01843 0.0631,2.60243 -10e-4,3.52 -0.0644,0.91758 -0.11653,0.0843 -0.11581,-1.85168 z m -55.97983,-15.92 -0.93987,-1.04 1.04,0.93987 c 0.96942,0.87609 1.18709,1.14013 0.93987,1.14013 -0.0551,0 -0.52308,-0.468 -1.04,-1.04 z m 35.06013,-18.64 c 0.41337,-0.44 0.82356,-0.8 0.91156,-0.8 0.088,0 -0.1782,0.36 -0.59156,0.8 -0.41336,0.44 -0.82356,0.8 -0.91156,0.8 -0.088,0 0.1782,-0.36 0.59156,-0.8 z m 7.04001,-7.86398 c -11.05151,-0.94978 -19.34564,-3.10676 -25.44,-6.61593 -3.64553,-2.09912 -7.90324,-6.43758 -9.67244,-9.85588 -1.77788,-3.43506 -2.89434,-7.43396 -3.33622,-11.94955 -0.31011,-3.16908 -0.28756,-4.08995 0.15306,-6.25062 1.08154,-5.30347 4.39612,-10.59457 9.25335,-14.77118 5.10339,-4.38829 11.91559,-5.35413 27.92225,-3.95884 11.01807,0.96044 20.62343,0.97203 31.15587,0.0376 18.21714,-1.61619 24.11302,-0.53455 30.21632,5.54336 5.55116,5.52807 8.20018,11.86275 7.75914,18.55459 -0.63116,9.57648 -3.18376,15.8389 -8.43549,20.69528 -4.66371,4.31262 -10.97695,6.70601 -21.50929,8.15432 -4.31564,0.59345 -32.42942,0.9013 -38.06655,0.41684 z m 18.56,-5.99756 c 1.57234,-0.95404 3.14255,-3.39269 2.78479,-4.32501 -0.33137,-0.8635 -1.47634,-0.64995 -1.85499,0.34596 -0.72049,1.89505 -2.44683,3.01392 -4.65026,3.01392 -1.76601,0 -3.21168,-0.82442 -4.32795,-2.4681 -0.97157,-1.43059 -1.97366,-1.67425 -2.1372,-0.51967 -0.12509,0.88307 1.20539,3.01677 2.34791,3.76538 2.47685,1.62289 5.35843,1.69183 7.8377,0.18752 z m -1.74546,-8.52391 c 1.51918,-1.51918 0.7774,-4.32312 -1.2803,-4.83957 -2.69332,-0.67598 -4.57907,2.84929 -2.58879,4.83957 1.06864,1.06864 2.80045,1.06864 3.86909,0 z m -27.55286,-1.09348 c 1.79262,-0.79296 4.1905,-3.19682 5.38531,-5.39874 1.37796,-2.53944 2.15374,-6.08328 2.14828,-9.81352 -0.008,-5.50456 -1.49907,-9.79156 -4.4905,-12.9113 -2.04289,-2.13052 -3.96371,-3.03304 -6.50605,-3.05696 -2.58499,-0.0243 -4.39941,0.84392 -6.57844,3.14793 -7.57635,8.01087 -5.17739,24.95451 4.03163,28.47506 1.56174,0.59705 4.0787,0.41174 6.00977,-0.44247 z m 1.93832,-6.44107 c 0.31855,-0.352 0.65118,-0.64 0.73919,-0.64 0.088,0 -0.10064,0.288 -0.4192,0.64 -0.31855,0.352 -0.65118,0.64 -0.73919,0.64 -0.088,0 0.10064,-0.288 0.4192,-0.64 z m -11.91285,-8.64 c 0,-0.792 0.0624,-1.116 0.13868,-0.72 0.0763,0.396 0.0763,1.044 0,1.44 -0.0763,0.396 -0.13868,0.072 -0.13868,-0.72 z m 3.99284,-2.77193 c 0.22001,-0.0888 0.58,-0.0888 0.8,0 0.22001,0.0888 0.04,0.1614 -0.39999,0.1614 -0.44,0 -0.62,-0.0726 -0.40001,-0.1614 z m -1.2,-5.66889 c 0,-0.0665 0.25201,-0.31845 0.56,-0.56 0.50755,-0.39804 0.51885,-0.38672 0.12082,0.12082 -0.41804,0.53304 -0.68082,0.70255 -0.68082,0.43918 z m 4.4,-2.33111 c 0.22001,-0.0888 0.58,-0.0888 0.8,0 0.22001,0.0888 0.04,0.1614 -0.39999,0.1614 -0.44,0 -0.62,-0.0726 -0.40001,-0.1614 z m 62.7135,25.69576 c 8.57644,-4.34601 10.09571,-20.97368 2.58184,-28.25697 -2.90816,-2.81891 -6.32997,-3.56506 -9.62105,-2.09794 -3.12862,1.3947 -6.21942,5.77374 -7.15715,10.14024 -0.57395,2.67257 -0.54775,8.24312 0.0498,10.58361 1.35169,5.29451 4.76144,9.41222 8.63308,10.42556 1.51803,0.39732 3.81464,0.0664 5.5135,-0.7945 z m -1.19349,-5.44465 c 0,-0.0665 0.252,-0.31845 0.56,-0.56 0.50754,-0.39804 0.51885,-0.38672 0.12081,0.12082 -0.41804,0.53304 -0.68081,0.70255 -0.68081,0.43918 z m -11.12577,-8.51918 c 0,-0.616 0.0659,-0.868 0.14635,-0.56 0.0805,0.308 0.0805,0.812 0,1.12 -0.0805,0.308 -0.14635,0.056 -0.14635,-0.56 z m -0.0119,-2.08 c 0.007,-0.528 0.0782,-0.70526 0.15937,-0.39391 0.0811,0.31135 0.0758,0.74335 -0.0119,0.96 -0.0877,0.21665 -0.15404,-0.0381 -0.14752,-0.56609 z m 4.99762,-5.4986 c 0.231,-0.0924 0.507,-0.0811 0.61333,0.0253 0.10633,0.10633 -0.0827,0.18196 -0.42,0.16807 -0.37278,-0.0154 -0.44861,-0.0912 -0.19333,-0.19334 z m -1.86,-2.1814 c 0.41336,-0.44 0.82356,-0.8 0.91156,-0.8 0.088,0 -0.1782,0.36 -0.59156,0.8 -0.41336,0.44 -0.82356,0.8 -0.91156,0.8 -0.088,0 0.1782,-0.36 0.59156,-0.8 z m 4.1,-1.9786 c 0.231,-0.0924 0.507,-0.0811 0.61333,0.0253 0.10633,0.10633 -0.0827,0.18196 -0.42,0.16807 -0.37278,-0.0154 -0.44861,-0.0912 -0.19333,-0.19334 z m 36.8,22.08 c 0.231,-0.0924 0.507,-0.0811 0.61333,0.0253 0.10634,0.10633 -0.0827,0.18196 -0.42,0.16807 -0.37277,-0.0154 -0.4486,-0.0912 -0.19333,-0.19334 z m -135.38,-0.95333 c 0.22,-0.0888 0.58,-0.0888 0.8,0 0.22,0.0888 0.04,0.1614 -0.4,0.1614 -0.44,0 -0.62,-0.0726 -0.4,-0.1614 z m 138.88,0 c 0.22001,-0.0888 0.58,-0.0888 0.8,0 0.22001,0.0888 0.04,0.1614 -0.39999,0.1614 -0.44,0 -0.62,-0.0726 -0.40001,-0.1614 z m -159.98,-4.16667 c 0.231,-0.0924 0.507,-0.0811 0.61333,0.0253 0.10633,0.10633 -0.0827,0.18196 -0.42,0.16807 -0.37278,-0.0154 -0.44861,-0.0912 -0.19333,-0.19334 z m 181.44,0 c 0.231,-0.0924 0.507,-0.0811 0.61333,0.0253 0.10633,0.10633 -0.0827,0.18196 -0.42,0.16807 -0.37278,-0.0154 -0.44861,-0.0912 -0.19333,-0.19334 z m -176.98,-1.27333 c 0.22,-0.0888 0.58,-0.0888 0.8,0 0.22,0.0888 0.04,0.1614 -0.4,0.1614 -0.44,0 -0.62,-0.0726 -0.4,-0.1614 z m 14.88,-0.009 c 0.308,-0.0805 0.812,-0.0805 1.12,0 0.308,0.0805 0.056,0.14634 -0.56,0.14634 -0.616,0 -0.868,-0.0659 -0.56,-0.14634 z m 141.92,0.009 c 0.22,-0.0888 0.58,-0.0888 0.8,0 0.22,0.0888 0.04,0.1614 -0.4,0.1614 -0.44,0 -0.62,-0.0726 -0.4,-0.1614 z m 15.52609,-0.01 c 0.31135,-0.0811 0.74335,-0.0758 0.96,0.0119 0.21665,0.0877 -0.0381,0.15404 -0.56609,0.14752 -0.528,-0.007 -0.70526,-0.0782 -0.39391,-0.15938 z M 223.88524,129.89123 c 0.0154,-0.37278 0.0912,-0.44861 0.19333,-0.19333 0.0924,0.231 0.0811,0.507 -0.0253,0.61333 -0.10634,0.10634 -0.18197,-0.0827 -0.16807,-0.42 z m 142.75712,-4.13333 c 0.007,-0.528 0.0782,-0.70526 0.15937,-0.39391 0.0811,0.31135 0.0758,0.74335 -0.0118,0.96 -0.0877,0.21665 -0.15405,-0.0381 -0.14752,-0.56609 z M 293.38438,73.208277 c 0.48643,-0.07355 1.20642,-0.07159 1.60001,0.0044 0.39358,0.07596 -0.004,0.136135 -0.88441,0.133733 -0.88,-0.0024 -1.20202,-0.06455 -0.7156,-0.138101 z m 3.99561,0.0038 c 0.396,-0.07627 1.044,-0.07627 1.44,0 0.396,0.07627 0.072,0.138678 -0.72001,0.138678 -0.79199,0 -1.11599,-0.0624 -0.71999,-0.138678 z"
     id="path7" /><path
     style="fill:#99d8ee"
     d="m 292.38621,269.36065 2.44623,-0.10845 -0.1535,-5.18715 c -0.2149,-7.26206 -0.88824,-10.1734 -3.10679,-13.43289 -0.78471,-1.15289 -0.79588,-1.23054 -0.25506,-1.77137 1.28978,-1.28978 2.36846,-2.98591 3.02046,-4.74943 0.6375,-1.7243 0.70657,-2.66206 0.86755,-11.77855 l 0.17489,-9.90509 1.2,-0.11646 1.19999,-0.11646 v 9.2858 c 0,5.65655 0.14063,9.94856 0.35981,10.98155 0.45904,2.16352 1.53143,4.24369 2.99398,5.80764 l 1.15201,1.23188 -0.94414,1.48812 c -2.21226,3.48686 -2.92165,6.79741 -2.92165,13.63462 v 4.97349 l -4.24,-0.0644 c -2.77201,-0.0421 -3.39305,-0.10194 -1.79378,-0.17285 z m 9.78663,0.006 c 0.56807,-0.0707 1.57607,-0.0719 2.24,-0.003 0.66393,0.0693 0.19914,0.12711 -1.03286,0.12853 -1.232,10e-4 -1.77521,-0.0553 -1.20714,-0.12595 z m -17.74846,-0.31867 c 0.48642,-0.0736 1.20642,-0.0716 1.6,0.004 0.39358,0.076 -0.004,0.13614 -0.8844,0.13374 -0.88,-0.002 -1.20202,-0.0645 -0.7156,-0.1381 z m 25.2756,0.004 c 0.49781,-0.12364 0.56027,-0.60743 0.56241,-4.35682 0.003,-4.45509 0.34542,-7.41417 1.14298,-9.86445 0.42586,-1.3083 0.60696,-1.5011 1.50926,-1.60667 l 1.02535,-0.11997 -0.0914,7.48011 c -0.065,5.31855 0.0157,7.60916 0.27918,7.92667 0.30945,0.37287 0.0803,0.44656 -1.38857,0.44656 -0.96755,0 -2.17318,0.0526 -2.67918,0.11683 -0.506,0.0643 -0.668,0.0542 -0.36,-0.0223 z m -29.28,-0.32768 -1.2,-0.12552 v -7.65269 -7.65268 l 1.04,0.19797 c 0.572,0.10888 1.07002,0.2193 1.10671,0.24538 0.0367,0.0261 0.30771,0.90539 0.60226,1.95403 0.35737,1.2723 0.60133,3.79649 0.73329,7.58716 0.22251,6.39218 0.49704,5.73707 -2.28226,5.44635 z m -3.2,-0.29882 c 0.22,-0.0888 0.58,-0.0888 0.8,0 0.22,0.0888 0.04,0.16141 -0.4,0.16141 -0.44,0 -0.62,-0.0726 -0.4,-0.16141 z m 38.88,-0.009 c 0.308,-0.0805 0.812,-0.0805 1.12,0 0.308,0.0805 0.056,0.14634 -0.56,0.14634 -0.616,0 -0.868,-0.0658 -0.56,-0.14634 z m -41.44,-0.31135 c 0.22,-0.0888 0.58,-0.0888 0.8,0 0.22,0.0888 0.04,0.16141 -0.4,0.16141 -0.44,0 -0.62,-0.0726 -0.4,-0.16141 z m 44.32609,-0.01 c 0.31135,-0.0811 0.74335,-0.0758 0.96,0.0119 0.21665,0.0877 -0.0381,0.15404 -0.56609,0.14752 -0.528,-0.007 -0.70526,-0.0782 -0.39391,-0.15938 z m -46.54609,-0.31683 c 0.231,-0.0924 0.507,-0.0811 0.61333,0.0253 0.10633,0.10633 -0.0827,0.18196 -0.42,0.16807 -0.37278,-0.0154 -0.44861,-0.0912 -0.19333,-0.19333 z m 48.94,0.007 c 0.22,-0.0888 0.58,-0.0888 0.8,0 0.22001,0.0888 0.04,0.16141 -0.4,0.16141 -0.43999,0 -0.62,-0.0726 -0.4,-0.16141 z m -51.18,-0.32667 c 0.231,-0.0924 0.507,-0.0811 0.61333,0.0253 0.10633,0.10633 -0.0827,0.18196 -0.42,0.16807 -0.37278,-0.0154 -0.44861,-0.0912 -0.19333,-0.19334 z m 53.44,0 c 0.231,-0.0924 0.507,-0.0811 0.61333,0.0253 0.10633,0.10633 -0.0827,0.18196 -0.42,0.16807 -0.37278,-0.0154 -0.44861,-0.0912 -0.19333,-0.19334 z m 1.72315,-7.36374 0.0969,-7.29766 0.93166,-1.90008 c 1.09411,-2.23139 3.24913,-4.50423 4.92192,-5.19103 1.17318,-0.48168 2.59093,-1.80063 2.66433,-2.47866 0.14166,-1.30854 -0.77714,-2.43135 -2.78495,-3.40332 -1.78422,-0.86372 -3.82227,-3.10838 -4.87653,-5.37086 -0.74682,-1.60273 -0.86005,-2.29772 -0.96399,-5.91668 l -0.11778,-4.10063 1.23267,0.21432 c 16.71743,2.90656 29.96887,8.2936 35.13635,14.28379 2.10472,2.43981 2.85463,4.26016 2.87679,6.98315 0.0174,2.14392 -0.097,2.61483 -1.07222,4.41344 -1.94045,3.57865 -5.6813,6.5208 -12.29447,9.66951 -6.61819,3.15111 -14.11959,5.33757 -24.63063,7.17917 l -1.21685,0.2132 z m -59.26315,6.71788 c -0.44,-0.0755 -2.456,-0.50271 -4.48,-0.94931 -15.87692,-3.50329 -27.24115,-9.46111 -30.41657,-15.94623 -1.05926,-2.16331 -1.072,-5.69302 -0.0286,-7.91604 2.45468,-5.22972 10.61074,-10.30552 22.19152,-13.81056 3.64801,-1.1041 10.71813,-2.8126 13.13362,-3.17375 l 1.2,-0.17941 v 3.78313 c 0,2.67133 -0.15823,4.27307 -0.53842,5.45025 -0.74009,2.29156 -2.8289,4.53632 -5.31694,5.71392 -2.03742,0.96431 -2.99628,1.76882 -3.11368,2.61246 -0.18028,1.29555 0.0935,1.63481 2.16904,2.6873 2.649,1.34333 4.59977,3.24078 5.76065,5.6032 0.86991,1.77029 0.88039,1.86766 0.97607,9.0695 0.0775,5.83292 0.0139,7.27134 -0.32,7.23642 -0.2292,-0.024 -0.77672,-0.10536 -1.21672,-0.18088 z m 47.13889,-19.20786 c -2.60315,-2.54997 -2.75349,-3.32037 -2.90529,-14.88768 l -0.12914,-9.84 h 1.2816 c 2.37735,0 2.29394,-0.20384 2.29394,5.60573 0,4.23143 0.11517,5.58728 0.60949,7.17556 0.93003,2.98818 3.04452,5.45283 5.91517,6.8947 l 1.56466,0.7859 -0.92467,0.35132 c -1.42182,0.54023 -4.20517,2.76262 -5.22757,4.17401 l -0.91864,1.26814 z m -35.3034,0.95299 c -0.0157,-0.83215 -4.20031,-4.37868 -5.90117,-5.00129 -0.53265,-0.19498 -0.38617,-0.36582 0.98521,-1.14905 0.88599,-0.50601 2.35222,-1.73115 3.25829,-2.72254 2.45295,-2.68391 2.94218,-4.55309 2.94218,-11.24083 v -5.24629 h 0.76 c 0.418,0 1.22208,-0.0924 1.78686,-0.20537 l 1.02686,-0.20537 -0.12378,10.52537 c -0.10581,8.99668 -0.20138,10.68804 -0.65803,11.64537 -0.67645,1.41812 -1.40581,2.27455 -2.68131,3.14843 -1.0741,0.7359 -1.38786,0.83745 -1.39511,0.45157 z m -26.60003,-47.73995 c -0.61377,-0.50368 -0.68938,-0.72874 -0.40318,-1.2 0.69333,-1.14162 3.32773,-0.75592 3.32773,0.48721 0,1.3617 -1.64519,1.76268 -2.92455,0.71279 z m 7.25371,0.18622 c -1.27087,-0.92928 0.52605,-2.45443 2.1599,-1.83324 1.49911,0.56997 0.95122,2.26697 -0.73191,2.26697 -0.45916,0 -1.10176,-0.19518 -1.42799,-0.43373 z m 7.11084,-1.5119 c -0.69464,-0.40459 -0.71627,-1.05239 -0.0572,-1.71151 0.90083,-0.90082 1.41715,-0.61767 1.41715,0.77714 0,1.33165 -0.31103,1.54534 -1.36,0.93437 z m -20.32696,-0.36803 c -0.7551,-0.36391 -1.24759,-1.5603 -0.88428,-2.14815 0.60555,-0.97981 3.05124,0.14692 3.05124,1.40572 0,1.07469 -0.8636,1.37057 -2.16696,0.74243 z m -5.31209,-4.75129 c -1.09197,-0.85896 -1.08056,-2.31817 0.0194,-2.47473 0.98442,-0.14011 2.08299,1.04664 1.95906,2.11633 -0.12723,1.09826 -0.86738,1.23234 -1.97844,0.3584 z m -20.68096,-3.17505 c -0.69331,-0.6933 -0.81583,-1.92562 -0.33729,-3.39225 0.16651,-0.51026 0.61716,-2.00775 1.00144,-3.32775 l 0.69873,-2.4 1.06866,3.68 c 0.88129,3.03474 1.01158,3.85739 0.74308,4.6917 -0.49072,1.52487 -2.03423,1.8887 -3.17462,0.7483 z m 16.32029,-2.23971 c -0.8034,-0.8034 -0.76644,-2.34058 0.06,-2.49723 0.8321,-0.15771 1.91483,1.11431 1.79906,2.11359 -0.12674,1.09409 -0.97383,1.2689 -1.85909,0.38364 z m -3.97744,-4.98315 c -0.7946,-0.7946 -0.64322,-1.73714 0.279,-1.73714 0.86696,0 1.82553,1.10419 1.55977,1.79674 -0.22797,0.59409 -1.21714,0.56203 -1.83877,-0.0596 z m -4.12952,-3.23047 c -0.46702,-0.46702 -0.19921,-1.38667 0.40381,-1.38667 0.72846,0 1.70774,0.88377 1.44691,1.3058 -0.20973,0.33935 -1.53435,0.39723 -1.85072,0.0809 z"
     id="path6" /><path
     style="fill:#77b7e4"
     d="m 298.41998,264.61843 c 0,-3.27555 0.17233,-5.80761 0.50597,-7.43402 0.50108,-2.44267 1.84084,-5.64959 2.9298,-7.01286 l 0.56423,-0.70636 1.76,1.11683 c 1.62904,1.03372 6.09953,2.69588 7.25075,2.69588 0.34339,0 0.4304,0.17365 0.28063,0.56 -0.8876,2.2896 -1.21566,4.59226 -1.36579,9.58639 l -0.16553,5.50638 -1.32003,0.15869 c -0.72602,0.0873 -3.37203,0.23471 -5.88003,0.32763 l -4.56,0.16895 z m -13.6,4.36568 -1.92,-0.18621 -0.19534,-5.6 c -0.12817,-3.67455 -0.37573,-6.23801 -0.72,-7.45561 -0.28856,-1.02059 -0.52466,-1.91102 -0.52466,-1.97875 0,-0.0677 -0.396,-0.18312 -0.88,-0.25644 -0.64849,-0.0982 -0.53749,-0.14592 0.42192,-0.18125 2.41214,-0.0888 6.72383,-1.71349 8.74746,-3.29606 0.69046,-0.53996 0.8244,-0.55191 1.30554,-0.11649 0.94148,0.85204 2.56588,4.48097 3.02555,6.75914 0.24475,1.213 0.51426,4.54546 0.59891,7.40546 l 0.15391,5.2 -4.04665,-0.0538 c -2.22565,-0.0296 -4.91064,-0.13759 -5.96664,-0.24 z m -10.72,-1.00483 c -2.376,-0.32497 -4.78051,-0.67485 -5.34336,-0.7775 l -1.02336,-0.18663 -0.0966,-7.26863 c -0.0958,-7.20664 -0.10421,-7.28403 -0.98438,-9.07585 -1.01774,-2.07188 -3.13879,-4.26679 -5.08046,-5.25736 l -1.33594,-0.68154 3.65207,-0.17537 c 2.27553,-0.10926 4.38109,-0.40812 5.58622,-0.79288 2.09996,-0.67046 1.98561,-0.69544 4.62057,1.0096 1.45279,0.94009 2.87134,2.30607 3.74195,3.60332 0.35357,0.52683 0.38456,0.85597 0.12607,1.33897 -0.57364,1.07184 -0.39509,2.26454 0.45726,3.05447 l 0.8,0.74141 v 7.56331 c 0,5.85538 -0.0903,7.55565 -0.4,7.52942 -0.22,-0.0186 -2.344,-0.29976 -4.72,-0.62474 z m 39.91797,0.46993 c -0.13088,-0.13089 -0.23797,-3.58598 -0.23797,-7.67798 0,-4.76184 -0.11807,-7.49855 -0.328,-7.60266 -0.1804,-0.0895 -0.14949,-0.12716 0.0687,-0.0838 0.21819,0.0434 0.7416,-0.33098 1.16314,-0.83195 0.65774,-0.78168 0.73572,-1.11571 0.54985,-2.35522 -0.21557,-1.43751 -0.2076,-1.45316 1.68325,-3.30335 1.04492,-1.02246 2.57074,-2.18378 3.39072,-2.58072 l 1.49086,-0.72172 2.15074,0.59303 c 1.47667,0.40717 3.22856,0.59303 5.58973,0.59303 1.89144,0 3.43944,0.11312 3.44,0.25137 5.5e-4,0.13826 -0.64467,0.52814 -1.43383,0.86642 -1.91815,0.82221 -4.01433,2.97885 -5.1535,5.30213 l -0.93166,1.90008 -0.0965,7.24066 -0.0964,7.24065 -4.22356,0.53562 c -2.32295,0.29459 -4.80046,0.61138 -5.50558,0.70398 -0.70511,0.0926 -1.38911,0.0613 -1.52,-0.0696 z m -31.57271,-25.91798 c 0.0154,-0.37278 0.0912,-0.4486 0.19333,-0.19333 0.0924,0.231 0.0811,0.507 -0.0253,0.61333 -0.10633,0.10634 -0.18196,-0.0827 -0.16807,-0.42 z m 27.84,-1.28 c 0.0154,-0.37278 0.0912,-0.4486 0.19333,-0.19333 0.0924,0.231 0.0811,0.507 -0.0253,0.61333 -0.10633,0.10634 -0.18196,-0.0827 -0.16807,-0.42 z m -12.36348,-9.25333 c -1.5e-4,-5.28 0.0437,-7.4849 0.0974,-4.89978 0.0537,2.58512 0.0538,6.90512 2.6e-4,9.6 -0.0536,2.69488 -0.0975,0.57978 -0.0977,-4.70022 z m -2.88054,-0.64 c 1.6e-4,-5.104 0.0443,-7.14719 0.0982,-4.54042 0.0539,2.60676 0.0537,6.78276 -2.7e-4,9.28 -0.054,2.49723 -0.0981,0.36442 -0.0979,-4.73958 z m 33.43454,6.64 -0.77578,-0.88 0.88,0.77578 c 0.82249,0.72509 1.02675,0.98422 0.77578,0.98422 -0.0573,0 -0.45332,-0.396 -0.88,-0.88 z m -63.65578,-0.24 c 0.41336,-0.44 0.82356,-0.8 0.91156,-0.8 0.088,0 -0.1782,0.36 -0.59156,0.8 -0.41336,0.44 -0.82356,0.8 -0.91156,0.8 -0.088,0 0.1782,-0.36 0.59156,-0.8 z m -22.69474,-43.86667 c 0.0154,-0.37278 0.0912,-0.4486 0.19333,-0.19333 0.0924,0.231 0.0811,0.507 -0.0253,0.61333 -0.10633,0.10634 -0.18196,-0.0827 -0.16807,-0.42 z M 228.27998,181.0593 c 0.231,-0.0924 0.50701,-0.0811 0.61333,0.0253 0.10634,0.10633 -0.0827,0.18196 -0.41999,0.16807 -0.37279,-0.0154 -0.44862,-0.0912 -0.19334,-0.19334 z"
     id="path5" /><path
     style="fill:#caa08b"
     d="m 297.92655,209.1179 c 0,-7.48 0.0419,-10.54 0.0931,-6.8 0.0512,3.74 0.0512,9.86 0,13.6 -0.0512,3.74 -0.0931,0.68 -0.0931,-6.8 z m -2.88429,-4 c -1.3e-4,-5.456 0.0435,-7.73299 0.097,-5.05997 0.0535,2.67302 0.0536,7.13702 2.5e-4,9.92 -0.0533,2.78298 -0.0971,0.59597 -0.0972,-4.86003 z m -39.42228,4.09942 c 0.308,-0.0805 0.812,-0.0805 1.12,0 0.308,0.0805 0.056,0.14634 -0.56,0.14634 -0.616,0 -0.868,-0.0659 -0.56,-0.14634 z m 3.2,0 c 0.308,-0.0805 0.812,-0.0805 1.12,0 0.308,0.0805 0.056,0.14634 -0.56,0.14634 -0.616,0 -0.868,-0.0659 -0.56,-0.14634 z m 20.42526,-3.80609 c 0.0154,-0.37278 0.0912,-0.4486 0.19333,-0.19333 0.0924,0.231 0.0811,0.507 -0.0253,0.61333 -0.10633,0.10634 -0.18196,-0.0827 -0.16807,-0.42 z m 45.80899,-5.25333 c 0,-0.616 0.0658,-0.868 0.14634,-0.56 0.0805,0.308 0.0805,0.812 0,1.12 -0.0805,0.308 -0.14634,0.056 -0.14634,-0.56 z m -82.49437,-8.08 -0.93987,-1.04 1.03999,0.93987 c 0.96943,0.87609 1.1871,1.14013 0.93988,1.14013 -0.0551,0 -0.52308,-0.468 -1.04,-1.04 z m -7.68,-9.92 -0.93988,-1.04 1.04,0.93987 c 0.96943,0.87609 1.18709,1.14013 0.93987,1.14013 -0.0551,0 -0.52307,-0.468 -1.03999,-1.04 z m 58.48239,-5.91861 c 1.88225,-0.0565 5.05025,-0.0567 7.04,-4.4e-4 1.98976,0.0562 0.44974,0.10244 -3.42226,0.10269 -3.872,2.4e-4 -5.49998,-0.0458 -3.61774,-0.10225 z m -10.21617,-0.30315 c 0.31135,-0.0811 0.74335,-0.0758 0.96,0.0119 0.21665,0.0877 -0.0381,0.15404 -0.56609,0.14752 -0.528,-0.007 -0.70526,-0.0782 -0.39391,-0.15938 z m 28.8,0 c 0.31135,-0.0811 0.74335,-0.0758 0.96,0.0119 0.21665,0.0877 -0.0381,0.15404 -0.56609,0.14752 -0.528,-0.007 -0.70526,-0.0782 -0.39391,-0.15938 z m 4.65391,-0.31684 c 0.231,-0.0924 0.507,-0.0811 0.61333,0.0253 0.10633,0.10633 -0.0827,0.18196 -0.42,0.16807 -0.37278,-0.0154 -0.44861,-0.0912 -0.19333,-0.19334 z m 2.88,-0.32 c 0.231,-0.0924 0.507,-0.0811 0.61333,0.0253 0.10633,0.10633 -0.0827,0.18196 -0.42,0.16807 -0.37278,-0.0154 -0.44861,-0.0912 -0.19333,-0.19334 z m -24.18,-4.48198 c 0.308,-0.0805 0.812,-0.0805 1.12,0 0.308,0.0805 0.056,0.14634 -0.56,0.14634 -0.616,0 -0.868,-0.0659 -0.56,-0.14634 z m -4.26422,-1.93942 -0.77578,-0.88 0.88,0.77578 c 0.82249,0.72508 1.02675,0.98422 0.77578,0.98422 -0.0573,0 -0.45333,-0.396 -0.88,-0.88 z m 9.78422,-0.08 c 0.31855,-0.352 0.65119,-0.64 0.73919,-0.64 0.088,0 -0.10064,0.288 -0.41919,0.64 -0.31856,0.352 -0.65119,0.64 -0.73919,0.64 -0.088,0 0.10063,-0.288 0.41919,-0.64 z m -5.66001,0.1014 c 0.231,-0.0924 0.507,-0.0811 0.61334,0.0253 0.10633,0.10633 -0.0827,0.18196 -0.42001,0.16807 -0.37277,-0.0154 -0.4486,-0.0912 -0.19333,-0.19334 z m 1.28,0 c 0.231,-0.0924 0.507,-0.0811 0.61333,0.0253 0.10633,0.10633 -0.0827,0.18196 -0.42,0.16807 -0.37278,-0.0154 -0.44861,-0.0912 -0.19333,-0.19334 z m 45.02,-2.3414 c 0.68744,-0.704 1.32188,-1.28 1.40988,-1.28 0.088,0 -0.40244,0.576 -1.08988,1.28 -0.68744,0.704 -1.32189,1.28 -1.40989,1.28 -0.088,0 0.40245,-0.576 1.08989,-1.28 z m -91.53506,-1.68 -1.26494,-1.36 1.36,1.26494 c 1.26478,1.17639 1.50705,1.45506 1.26494,1.45506 -0.0523,0 -0.66428,-0.612 -1.36,-1.36 z m 52.33506,0.73603 c 0,-0.26412 -0.28199,-0.35673 -0.79032,-0.25956 -0.43467,0.0831 -0.71417,0.0279 -0.62111,-0.1227 0.23919,-0.38702 1.33245,-0.34044 1.58459,0.0675 0.11601,0.18771 0.1245,0.42771 0.0189,0.53333 -0.10562,0.10563 -0.19204,0.007 -0.19204,-0.21859 z m -12.5541,-0.38993 c 0.18595,-0.18596 0.52698,-0.27514 0.75784,-0.19818 0.23967,0.0799 0.0946,0.22494 -0.33809,0.33809 -0.53227,0.13919 -0.65721,0.0975 -0.41975,-0.13991 z m 4.19328,-4.0261 c -0.39804,-0.50754 -0.38672,-0.51886 0.12082,-0.12082 0.308,0.24155 0.56,0.49355 0.56,0.56 0,0.26337 -0.26278,0.0939 -0.68082,-0.43918 z m 3.56082,0.43918 c 0,-0.0665 0.252,-0.31845 0.56,-0.56 0.50754,-0.39804 0.51885,-0.38672 0.12082,0.12082 -0.41804,0.53304 -0.68082,0.70255 -0.68082,0.43918 z m -89.66,-3.61778 c 0.231,-0.0924 0.507,-0.0811 0.61333,0.0253 0.10633,0.10633 -0.0827,0.18196 -0.42,0.16807 -0.37278,-0.0154 -0.44861,-0.0912 -0.19333,-0.19334 z m 174.08,-0.32 c 0.231,-0.0924 0.507,-0.0811 0.61333,0.0253 0.10633,0.10633 -0.0827,0.18196 -0.42,0.16807 -0.37278,-0.0154 -0.44861,-0.0912 -0.19333,-0.19334 z m -168,-0.32 c 0.231,-0.0924 0.507,-0.0811 0.61333,0.0253 0.10633,0.10633 -0.0827,0.18196 -0.42,0.16807 -0.37278,-0.0154 -0.44861,-0.0912 -0.19333,-0.19334 z m 164.8,0 c 0.231,-0.0924 0.507,-0.0811 0.61333,0.0253 0.10634,0.10633 -0.0827,0.18196 -0.42,0.16807 -0.37277,-0.0154 -0.4486,-0.0912 -0.19333,-0.19334 z m -160.96,-0.32 c 0.231,-0.0924 0.507,-0.0811 0.61333,0.0253 0.10633,0.10633 -0.0827,0.18196 -0.42,0.16807 -0.37278,-0.0154 -0.44861,-0.0912 -0.19333,-0.19334 z m 157.1,0.007 c 0.22,-0.0888 0.58,-0.0888 0.8,0 0.22001,0.0888 0.04,0.1614 -0.4,0.1614 -0.44,0 -0.62,-0.0726 -0.4,-0.1614 z m -152.64,-0.32 c 0.22,-0.0888 0.58,-0.0888 0.8,0 0.22,0.0888 0.04,0.1614 -0.4,0.1614 -0.44,0 -0.62,-0.0726 -0.4,-0.1614 z m 148.0061,-0.01 c 0.31135,-0.0811 0.74335,-0.0758 0.95999,0.0119 0.21665,0.0877 -0.0381,0.15404 -0.56608,0.14752 -0.52801,-0.007 -0.70527,-0.0782 -0.39391,-0.15938 z m -156.6261,-0.317 c 0.231,-0.0924 0.50701,-0.0811 0.61333,0.0253 0.10634,0.10633 -0.0827,0.18196 -0.41999,0.16807 -0.37279,-0.0154 -0.44861,-0.0912 -0.19334,-0.19334 z m 14.86,-0.002 c 0.308,-0.0805 0.812,-0.0805 1.12,0 0.308,0.0805 0.056,0.14634 -0.56,0.14634 -0.616,0 -0.868,-0.0659 -0.56,-0.14634 z m 67.2061,-0.001 c 0.31135,-0.0811 0.74335,-0.0758 0.95999,0.0119 0.21665,0.0877 -0.0381,0.15404 -0.56608,0.14752 -0.52801,-0.007 -0.70527,-0.0782 -0.39391,-0.15938 z m 67.67763,-0.005 c 0.39806,-0.0765 0.97405,-0.0736 1.28,0.006 0.30595,0.0801 -0.0197,0.14272 -0.72373,0.13917 -0.704,-0.004 -0.95432,-0.0691 -0.55627,-0.14562 z m 15.69628,0.008 c 0.231,-0.0924 0.507,-0.0811 0.61333,0.0253 0.10633,0.10633 -0.0827,0.18196 -0.42,0.16807 -0.37278,-0.0154 -0.44861,-0.0912 -0.19333,-0.19334 z m -161.6,-0.32 c 0.231,-0.0924 0.507,-0.0811 0.61333,0.0253 0.10633,0.10633 -0.0827,0.18196 -0.42,0.16807 -0.37278,-0.0154 -0.44861,-0.0912 -0.19333,-0.19334 z m 157.76,0 c 0.231,-0.0924 0.507,-0.0811 0.61333,0.0253 0.10633,0.10633 -0.0827,0.18196 -0.42,0.16807 -0.37278,-0.0154 -0.44861,-0.0912 -0.19333,-0.19334 z m -153.45392,-0.32316 c 0.31135,-0.0811 0.74335,-0.0758 0.96,0.0119 0.21665,0.0877 -0.0381,0.15404 -0.56609,0.14752 -0.528,-0.007 -0.70526,-0.0782 -0.39391,-0.15938 z m 45.91391,0.01 c 0.22001,-0.0888 0.58,-0.0888 0.8,0 0.22001,0.0888 0.04,0.1614 -0.39999,0.1614 -0.44,0 -0.62,-0.0726 -0.40001,-0.1614 z m 57.44609,-0.01 c 0.31136,-0.0811 0.74336,-0.0758 0.96,0.0119 0.21665,0.0877 -0.0381,0.15404 -0.56608,0.14752 -0.52801,-0.007 -0.70527,-0.0782 -0.39392,-0.15938 z m 45.61391,0.003 c 0.231,-0.0924 0.507,-0.0811 0.61333,0.0253 0.10634,0.10633 -0.0827,0.18196 -0.42,0.16807 -0.37277,-0.0154 -0.4486,-0.0912 -0.19333,-0.19334 z m -142.58,-0.32198 c 0.308,-0.0805 0.812,-0.0805 1.12,0 0.308,0.0805 0.056,0.14634 -0.56,0.14634 -0.616,0 -0.868,-0.0659 -0.56,-0.14634 z m 135.68,0 c 0.308,-0.0805 0.812,-0.0805 1.12,0 0.308,0.0805 0.056,0.14634 -0.56,0.14634 -0.616,0 -0.868,-0.0659 -0.56,-0.14634 z m -42.66422,-1.61942 -0.77578,-0.88 0.88,0.77578 c 0.82249,0.72508 1.02675,0.98422 0.77578,0.98422 -0.0573,0 -0.45332,-0.396 -0.88,-0.88 z m -57.6166,0 c -0.39804,-0.50754 -0.38672,-0.51886 0.12082,-0.12082 0.308,0.24155 0.56,0.49355 0.56,0.56 0,0.26337 -0.26278,0.0939 -0.68082,-0.43918 z m -71.05918,-1.5786 c 0.231,-0.0924 0.507,-0.0811 0.61333,0.0253 0.10633,0.10633 -0.0827,0.18196 -0.42,0.16807 -0.37278,-0.0154 -0.44861,-0.0912 -0.19333,-0.19334 z m 3.2,-0.32 c 0.231,-0.0924 0.507,-0.0811 0.61333,0.0253 0.10633,0.10633 -0.0827,0.18196 -0.42,0.16807 -0.37278,-0.0154 -0.44861,-0.0912 -0.19333,-0.19334 z m 201.28,0 c 0.231,-0.0924 0.507,-0.0811 0.61333,0.0253 0.10633,0.10633 -0.0827,0.18196 -0.42,0.16807 -0.37278,-0.0154 -0.44861,-0.0912 -0.19333,-0.19334 z m -197.78,-0.31333 c 0.22,-0.0888 0.58,-0.0888 0.8,0 0.22,0.0888 0.04,0.1614 -0.4,0.1614 -0.44,0 -0.62,-0.0726 -0.4,-0.1614 z m 193.92,0 c 0.22,-0.0888 0.58,-0.0888 0.8,0 0.22,0.0888 0.04,0.1614 -0.4,0.1614 -0.44,0 -0.62,-0.0726 -0.4,-0.1614 z m -188.8,-0.32 c 0.22,-0.0888 0.58,-0.0888 0.8,0 0.22,0.0888 0.04,0.1614 -0.4,0.1614 -0.44,0 -0.62,-0.0726 -0.4,-0.1614 z m 183.84609,-0.01 c 0.31135,-0.0811 0.74335,-0.0758 0.96,0.0119 0.21665,0.0877 -0.0381,0.15404 -0.56609,0.14752 -0.528,-0.007 -0.70526,-0.0782 -0.39391,-0.15938 z m 12.33391,0.003 c 0.231,-0.0924 0.507,-0.0811 0.61333,0.0253 0.10633,0.10633 -0.0827,0.18196 -0.42,0.16807 -0.37278,-0.0154 -0.44861,-0.0912 -0.19333,-0.19334 z m -205.12,-0.32 c 0.231,-0.0924 0.507,-0.0811 0.61333,0.0253 0.10633,0.10633 -0.0827,0.18196 -0.42,0.16807 -0.37278,-0.0154 -0.44861,-0.0912 -0.19333,-0.19334 z m 19.51702,-0.0203 c 1.81336,-0.0571 4.69336,-0.0569 6.4,5.1e-4 1.70664,0.0574 0.22298,0.10418 -3.29702,0.1039 -3.52,-2.8e-4 -4.91634,-0.0473 -3.10298,-0.10441 z m 157.12,0 c 1.81336,-0.0571 4.69336,-0.0569 6.4,5.1e-4 1.70664,0.0574 0.22298,0.10418 -3.29702,0.1039 -3.52,-2.8e-4 -4.91634,-0.0473 -3.10298,-0.10441 z m 25.28298,0.0203 c 0.231,-0.0924 0.507,-0.0811 0.61333,0.0253 0.10633,0.10633 -0.0827,0.18196 -0.42,0.16807 -0.37278,-0.0154 -0.44861,-0.0912 -0.19333,-0.19334 z m -198.08,-0.32 c 0.231,-0.0924 0.507,-0.0811 0.61333,0.0253 0.10633,0.10633 -0.0827,0.18196 -0.42,0.16807 -0.37278,-0.0154 -0.44861,-0.0912 -0.19333,-0.19334 z m 194.24,0 c 0.231,-0.0924 0.507,-0.0811 0.61333,0.0253 0.10633,0.10633 -0.0827,0.18196 -0.42,0.16807 -0.37278,-0.0154 -0.44861,-0.0912 -0.19333,-0.19334 z m -189.61391,-0.32267 c 0.31136,-0.0811 0.74335,-0.0758 0.96001,0.0119 0.21664,0.0877 -0.0381,0.15404 -0.56609,0.14752 -0.528,-0.007 -0.70527,-0.0782 -0.39392,-0.15938 z m 184.64001,0 c 0.31135,-0.0811 0.74335,-0.0758 0.95999,0.0119 0.21666,0.0877 -0.0381,0.15404 -0.56608,0.14752 -0.52801,-0.007 -0.70526,-0.0782 -0.39391,-0.15938 z m -176.32609,-0.33135 c 0.66,-0.069 1.74,-0.069 2.4,0 0.66,0.069 0.12,0.12552 -1.2,0.12552 -1.32,0 -1.86,-0.0565 -1.2,-0.12552 z m 9.44,0.002 c 0.572,-0.071 1.508,-0.071 2.08,0 0.572,0.071 0.104,0.12907 -1.04,0.12907 -1.144,0 -1.612,-0.0581 -1.04,-0.12907 z m 147.19286,5.4e-4 c 0.56807,-0.0707 1.57607,-0.0719 2.24,-0.003 0.66393,0.0693 0.19914,0.12712 -1.03286,0.12853 -1.23201,0.001 -1.77521,-0.0553 -1.20714,-0.12594 z m 10.24714,-5.4e-4 c 0.572,-0.071 1.508,-0.071 2.08,0 0.572,0.071 0.104,0.12907 -1.04,0.12907 -1.144,0 -1.61201,-0.0581 -1.04,-0.12907 z M 349.0305,147.6779 c 0,-0.44 0.0726,-0.62 0.16141,-0.4 0.0888,0.22 0.0888,0.58 0,0.8 -0.0888,0.22 -0.16141,0.04 -0.16141,-0.4 z m -73.94526,-0.50667 c 0.0154,-0.37278 0.0912,-0.4486 0.19333,-0.19333 0.0924,0.231 0.0811,0.507 -0.0253,0.61333 -0.10633,0.10634 -0.18196,-0.0827 -0.16807,-0.42 z m -32.64,-0.32 c 0.0154,-0.37278 0.0912,-0.4486 0.19333,-0.19333 0.0924,0.231 0.0811,0.507 -0.0253,0.61333 -0.10634,0.10634 -0.18197,-0.0827 -0.16807,-0.42 z m 90.26526,-0.13333 c 0,-0.44 0.0726,-0.62 0.16141,-0.4 0.0888,0.22 0.0888,0.58 0,0.8 -0.0888,0.22 -0.16141,0.04 -0.16141,-0.4 z m -0.0253,-3.06667 c 0.0154,-0.37278 0.0912,-0.4486 0.19333,-0.19333 0.0924,0.231 0.0811,0.507 -0.0253,0.61333 -0.10633,0.10634 -0.18196,-0.0827 -0.16807,-0.42 z m -57.6,-0.32 c 0.0154,-0.37278 0.0912,-0.4486 0.19333,-0.19333 0.0924,0.231 0.0811,0.507 -0.0253,0.61333 -0.10633,0.10634 -0.18196,-0.0827 -0.16807,-0.42 z m -32.49813,-2.50243 c 0.64385,-7.15303 6.85602,-15.90133 13.4616,-18.95734 4.97583,-2.30202 11.71551,-2.80429 24.93131,-1.858 10.19986,0.73035 19.65256,0.73149 29.76,0.004 19.85825,-1.43007 26.22749,0.182 32.74913,8.28887 3.38302,4.20534 5.28509,8.44791 5.65422,12.61176 l 0.1596,1.8002 -0.473,-2.05696 c -0.95949,-4.17263 -3.84921,-9.09442 -7.43776,-12.66805 -6.1033,-6.07791 -11.99918,-7.15955 -30.21632,-5.54336 -10.53244,0.93442 -20.1378,0.92283 -31.15587,-0.0376 -16.00666,-1.39529 -22.81886,-0.42945 -27.92225,3.95884 -4.63599,3.98637 -8.06048,9.30111 -9.20771,14.29018 l -0.47299,2.05656 z m 78.60344,-0.5109 c 0,-0.44 0.0726,-0.62 0.16141,-0.4 0.0888,0.22 0.0888,0.58 0,0.8 -0.0888,0.22 -0.16141,0.04 -0.16141,-0.4 z m 3.83999,0 c 0,-0.44 0.0726,-0.62 0.16141,-0.4 0.0888,0.22 0.0888,0.58 0,0.8 -0.0888,0.22 -0.16141,0.04 -0.16141,-0.4 z m 40.93474,-1.78667 c 0.0154,-0.37278 0.0912,-0.4486 0.19333,-0.19333 0.0924,0.231 0.0811,0.507 -0.0253,0.61333 -0.10633,0.10634 -0.18196,-0.0827 -0.16807,-0.42 z m -101.54526,-0.34526 c 0.22001,-0.0888 0.58,-0.0888 0.8,0 0.22001,0.0888 0.04,0.1614 -0.39999,0.1614 -0.44,0 -0.62,-0.0726 -0.40001,-0.1614 z m 7.41578,-1.94807 -0.77578,-0.88 0.88,0.77578 c 0.82249,0.72508 1.02675,0.98422 0.77578,0.98422 -0.0573,0 -0.45332,-0.396 -0.88,-0.88 z m 57.6,0 -0.77578,-0.88 0.88,0.77578 c 0.8225,0.72508 1.02675,0.98422 0.77578,0.98422 -0.0573,0 -0.45332,-0.396 -0.88,-0.88 z m 36.8866,-1.84 c 0.007,-0.528 0.0782,-0.70526 0.15938,-0.39391 0.0811,0.31135 0.0758,0.74335 -0.0118,0.96 -0.0877,0.21665 -0.15405,-0.0381 -0.14752,-0.56609 z m -142.11712,-0.34667 c 0.0154,-0.37278 0.0912,-0.4486 0.19333,-0.19333 0.0924,0.231 0.0811,0.507 -0.0253,0.61333 -0.10633,0.10634 -0.18196,-0.0827 -0.16807,-0.42 z m -0.22555,-7.97333 c 7.2e-4,-1.936 0.0534,-2.68674 0.11712,-1.66832 0.0637,1.01843 0.0631,2.60243 -0.001,3.52 -0.0644,0.91758 -0.11654,0.0843 -0.11582,-1.85168 z M 355.33916,95.277903 c -0.39804,-0.507538 -0.38672,-0.518856 0.12082,-0.120818 0.308,0.241551 0.56,0.493551 0.56,0.56 0,0.263371 -0.26278,0.09386 -0.68082,-0.439182 z M 233.48525,86.051236 c 0.0154,-0.372782 0.0912,-0.448608 0.19333,-0.193333 0.0924,0.231 0.0811,0.507 -0.0253,0.613333 -0.10633,0.106333 -0.18196,-0.08267 -0.16807,-0.42 z m 121.27999,0 c 0.0154,-0.372782 0.0912,-0.448608 0.19333,-0.193333 0.0924,0.231 0.0811,0.507 -0.0253,0.613333 -0.10633,0.106333 -0.18196,-0.08267 -0.16807,-0.42 z m -121.28,-7.36 c 0.0154,-0.372782 0.0912,-0.448608 0.19333,-0.193333 0.0924,0.231 0.0811,0.507 -0.0253,0.613333 -0.10633,0.106333 -0.18196,-0.08267 -0.16807,-0.42 z m 121.28,0 c 0.0154,-0.372782 0.0912,-0.448608 0.19333,-0.193333 0.0924,0.231 0.0811,0.507 -0.0253,0.613333 -0.10633,0.106333 -0.18196,-0.08267 -0.16807,-0.42 z m -70.48526,-4.83193 c 0.231,-0.09244 0.50701,-0.08107 0.61334,0.02526 0.10633,0.106334 -0.0827,0.181965 -0.42,0.16807 -0.37278,-0.01535 -0.44861,-0.09118 -0.19334,-0.193333 z m 3.52,-0.32 c 0.231,-0.09244 0.507,-0.08107 0.61333,0.02526 0.10634,0.106334 -0.0827,0.181965 -0.42,0.16807 -0.37277,-0.01535 -0.4486,-0.09118 -0.19333,-0.193333 z m 16,0 c 0.231,-0.09244 0.507,-0.08107 0.61333,0.02526 0.10634,0.106334 -0.0827,0.181965 -0.42,0.16807 -0.37277,-0.01535 -0.4486,-0.09118 -0.19333,-0.193333 z m -8.02,-0.313333 c 0.22001,-0.08877 0.58,-0.08877 0.80001,0 0.22,0.08877 0.04,0.161403 -0.4,0.161403 -0.44,0 -0.62,-0.07263 -0.40001,-0.161403 z"
     id="path4" /><path
     style="fill:#aa5c51"
     d="m 312.45916,247.2779 c -0.39804,-0.50754 -0.38672,-0.51886 0.12082,-0.12082 0.308,0.24155 0.56,0.49355 0.56,0.56 0,0.26337 -0.26278,0.0939 -0.68082,-0.43918 z m -44.63948,-19.12 c 7.2e-4,-1.936 0.0534,-2.68674 0.11712,-1.66832 0.0637,1.01843 0.0631,2.60243 -9.9e-4,3.52 -0.0644,0.91758 -0.11654,0.0843 -0.11582,-1.85168 z m 57.30815,-12 c 0,-8.36 0.0413,-11.78 0.0919,-7.6 0.0505,4.18 0.0505,11.02 0,15.2 -0.0505,4.18 -0.0919,0.76 -0.0919,-7.6 z m -57.28843,0.16 c 1.9e-4,-4.576 0.0451,-6.4035 0.0999,-4.06111 0.0547,2.34239 0.0546,6.08639 -3.4e-4,8.32 -0.0549,2.23361 -0.0997,0.31711 -0.0995,-4.25889 z m -10.45942,-7.09193 c 0.22,-0.0888 0.58,-0.0888 0.8,0 0.22001,0.0888 0.04,0.1614 -0.4,0.1614 -0.43999,0 -0.62,-0.0726 -0.4,-0.1614 z m 2.26,-7.68667 c 0.231,-0.0924 0.507,-0.0811 0.61333,0.0253 0.10633,0.10633 -0.0827,0.18196 -0.42,0.16807 -0.37278,-0.0154 -0.44861,-0.0912 -0.19333,-0.19334 z m -6.4,-3.84 c 0.231,-0.0924 0.507,-0.0811 0.61333,0.0253 0.10633,0.10633 -0.0827,0.18196 -0.42,0.16807 -0.37278,-0.0154 -0.44861,-0.0912 -0.19333,-0.19334 z m 42.88,-3.2 c 0.231,-0.0924 0.507,-0.0811 0.61333,0.0253 0.10634,0.10633 -0.0827,0.18196 -0.42,0.16807 -0.37278,-0.0154 -0.4486,-0.0912 -0.19333,-0.19334 z m -61.35474,-7.00807 c 0.0154,-0.37278 0.0912,-0.4486 0.19333,-0.19333 0.0924,0.231 0.0811,0.507 -0.0253,0.61333 -0.10633,0.10634 -0.18196,-0.0827 -0.16807,-0.42 z m -7.42608,-1.65333 c -0.39804,-0.50754 -0.38672,-0.51886 0.12083,-0.12082 0.30799,0.24155 0.56,0.49355 0.56,0.56 0,0.26337 -0.26278,0.0939 -0.68083,-0.43918 z m -5.31478,-9.26963 c 0.48642,-0.0735 1.20642,-0.0716 1.6,0.004 0.39358,0.076 -0.004,0.13614 -0.8844,0.13374 -0.88,-0.002 -1.20202,-0.0645 -0.7156,-0.13811 z m 65.92,-0.32 c 0.48643,-0.0735 1.20642,-0.0716 1.60001,0.004 0.39358,0.076 -0.004,0.13614 -0.88441,0.13374 -0.88,-0.002 -1.20202,-0.0645 -0.7156,-0.13811 z m 17.11561,-0.005 c 0.748,-0.0674 1.972,-0.0674 2.72,0 0.748,0.0674 0.136,0.1225 -1.36,0.1225 -1.496,0 -2.108,-0.0551 -1.36,-0.1225 z m -23.36,-0.29762 c 0.22,-0.0888 0.57999,-0.0888 0.8,0 0.22,0.0888 0.04,0.1614 -0.4,0.1614 -0.44,0 -0.62,-0.0726 -0.4,-0.1614 z m 31.84609,-0.01 c 0.31135,-0.0811 0.74335,-0.0758 0.95999,0.0119 0.21666,0.0877 -0.0381,0.15404 -0.56608,0.14752 -0.528,-0.007 -0.70526,-0.0782 -0.39391,-0.15938 z m -35.36609,-0.31017 c 0.22,-0.0888 0.58,-0.0888 0.8,0 0.22,0.0888 0.04,0.1614 -0.4,0.1614 -0.44,0 -0.62,-0.0726 -0.4,-0.1614 z m 39.38,-0.007 c 0.231,-0.0924 0.507,-0.0811 0.61333,0.0253 0.10633,0.10633 -0.0827,0.18196 -0.42,0.16807 -0.37278,-0.0154 -0.44861,-0.0912 -0.19333,-0.19334 z m -42.24,-0.32 c 0.231,-0.0924 0.507,-0.0811 0.61333,0.0253 0.10633,0.10633 -0.0827,0.18196 -0.42,0.16807 -0.37278,-0.0154 -0.44861,-0.0912 -0.19333,-0.19334 z m 17.66635,-5.3014 c -2.45741,-1.25551 -4.32631,-4.43578 -2.72635,-4.63937 0.4481,-0.057 0.87588,0.3036 1.42669,1.20271 0.84231,1.37494 2.80834,2.55666 4.25351,2.55666 1.8098,0 4.12252,-1.52098 4.74408,-3.12 0.29973,-0.77108 1.42715,-0.98781 1.66463,-0.32 0.19323,0.54336 -0.81588,2.48072 -1.74214,3.34473 -1.91269,1.78412 -5.21103,2.20625 -7.62042,0.97527 z m 61.43365,-2.96 c 0.59705,-0.616 1.15754,-1.12 1.24554,-1.12 0.088,0 -0.32849,0.504 -0.92554,1.12 -0.59705,0.616 -1.15755,1.12 -1.24555,1.12 -0.088,0 0.3285,-0.504 0.92555,-1.12 z m -115.88082,-0.08 c -0.39804,-0.50754 -0.38672,-0.51886 0.12082,-0.12082 0.53304,0.41804 0.70255,0.68082 0.43918,0.68082 -0.0665,0 -0.31845,-0.252 -0.56,-0.56 z m 56.47506,-5.19042 c -1.74384,-0.72124 -2.23842,-3.03449 -0.92879,-4.34413 1.6411,-1.64109 4.65455,-0.51318 4.65455,1.74216 0,1.81041 -2.09766,3.27536 -3.72576,2.60197 z m -78.25424,-4.70818 c 0.231,-0.0924 0.507,-0.0811 0.61333,0.0253 0.10633,0.10633 -0.0827,0.18196 -0.42,0.16807 -0.37278,-0.0154 -0.44861,-0.0912 -0.19333,-0.19334 z m 4.14,-0.31333 c 0.22,-0.0888 0.58,-0.0888 0.8,0 0.22,0.0888 0.04,0.1614 -0.4,0.1614 -0.44,0 -0.62,-0.0726 -0.4,-0.1614 z m 150.74,-0.007 c 0.231,-0.0924 0.507,-0.0811 0.61333,0.0253 0.10633,0.10633 -0.0827,0.18196 -0.42,0.16807 -0.37278,-0.0154 -0.44861,-0.0912 -0.19333,-0.19334 z m -157.12,-0.32 c 0.231,-0.0924 0.507,-0.0811 0.61333,0.0253 0.10633,0.10633 -0.0827,0.18196 -0.42,0.16807 -0.37278,-0.0154 -0.44861,-0.0912 -0.19333,-0.19334 z m 11.98,-0.002 c 0.308,-0.0805 0.812,-0.0805 1.12,0 0.308,0.0805 0.056,0.14634 -0.56,0.14634 -0.616,0 -0.868,-0.0659 -0.56,-0.14634 z m 138.88,0 c 0.308,-0.0805 0.812,-0.0805 1.12,0 0.308,0.0805 0.056,0.14634 -0.56,0.14634 -0.616,0 -0.868,-0.0659 -0.56,-0.14634 z m 12.66,0.002 c 0.231,-0.0924 0.507,-0.0811 0.61333,0.0253 0.10633,0.10633 -0.0827,0.18196 -0.42,0.16807 -0.37278,-0.0154 -0.44861,-0.0912 -0.19333,-0.19334 z m -159.68,-0.32 c 0.231,-0.0924 0.507,-0.0811 0.61333,0.0253 0.10633,0.10633 -0.0827,0.18196 -0.42,0.16807 -0.37278,-0.0154 -0.44861,-0.0912 -0.19333,-0.19334 z m 155.84,0 c 0.231,-0.0924 0.507,-0.0811 0.61333,0.0253 0.10633,0.10633 -0.0827,0.18196 -0.42,0.16807 -0.37278,-0.0154 -0.44861,-0.0912 -0.19333,-0.19334 z m -151.04,-0.32 c 0.231,-0.0924 0.507,-0.0811 0.61333,0.0253 0.10633,0.10633 -0.0827,0.18196 -0.42,0.16807 -0.37278,-0.0154 -0.44861,-0.0912 -0.19333,-0.19334 z m 146.06609,-0.003 c 0.31135,-0.0811 0.74335,-0.0758 0.96,0.0119 0.21665,0.0877 -0.0381,0.15404 -0.56609,0.14752 -0.528,-0.007 -0.70526,-0.0782 -0.39391,-0.15938 z m -103.70194,-0.63317 c -1.47267,-0.72578 -3.13126,-2.76919 -3.96074,-4.87968 -0.93696,-2.38397 -1.02085,-7.39013 -0.16495,-9.84356 1.15802,-3.31944 3.98738,-5.86183 6.52349,-5.86183 4.6492,0 8.29986,6.71298 7.13727,13.1243 -1.09967,6.06431 -5.45453,9.4718 -9.53507,7.46077 z m 0.79522,-13.28085 c 0.40735,-0.38268 0.74063,-1.03723 0.74063,-1.45455 0,-0.93803 -1.33808,-2.32967 -2.24,-2.32967 -0.88297,0 -2.24,1.38419 -2.24,2.28483 0,0.97696 1.2182,2.19517 2.19515,2.19517 0.44198,0 1.13688,-0.3131 1.54422,-0.69578 z m 56.90063,13.36097 c -5.97916,-2.67666 -6.67122,-15.32712 -1.06083,-19.39127 2.45373,-1.77747 4.80523,-1.66294 7.08654,0.34515 3.79109,3.33705 4.70699,10.13974 2.06547,15.34093 -1.80453,3.55312 -5.08014,5.05313 -8.09118,3.70519 z m 1.6279,-13.78286 c 1.08747,-1.6597 -0.45068,-3.52361 -2.35509,-2.85387 -2.06277,0.72544 -1.48004,3.65154 0.72719,3.65154 0.82495,0 1.23779,-0.20229 1.6279,-0.79767 z m 37.8321,14.01907 c 0.231,-0.0924 0.507,-0.0811 0.61333,0.0253 0.10633,0.10633 -0.0827,0.18196 -0.42,0.16807 -0.37278,-0.0154 -0.44861,-0.0912 -0.19333,-0.19334 z m -168,-3.52 c 0.231,-0.0924 0.507,-0.0811 0.61333,0.0253 0.10633,0.10633 -0.0827,0.18196 -0.42,0.16807 -0.37278,-0.0154 -0.44861,-0.0912 -0.19333,-0.19334 z m 203.2,0 c 0.231,-0.0924 0.507,-0.0811 0.61333,0.0253 0.10633,0.10633 -0.0827,0.18196 -0.42,0.16807 -0.37278,-0.0154 -0.44861,-0.0912 -0.19333,-0.19334 z m -195.05392,-0.64217 c 0.31135,-0.0811 0.74335,-0.0758 0.96,0.0119 0.21665,0.0877 -0.0381,0.15404 -0.56609,0.14752 -0.52799,-0.007 -0.70526,-0.0782 -0.39391,-0.15938 z m 186.71391,0.01 c 0.22001,-0.0888 0.58,-0.0888 0.80001,0 0.22,0.0888 0.04,0.1614 -0.4,0.1614 -0.44,0 -0.62,-0.0726 -0.40001,-0.1614 z m -179.84,-0.3339 c 0.396,-0.0763 1.044,-0.0763 1.44,0 0.396,0.0763 0.072,0.13867 -0.72,0.13867 -0.792,0 -1.116,-0.0624 -0.72,-0.13867 z m 15.2044,-0.004 c 0.48642,-0.0735 1.20642,-0.0716 1.6,0.004 0.39358,0.076 -0.004,0.13614 -0.8844,0.13374 -0.88,-0.002 -1.20202,-0.0645 -0.7156,-0.13811 z m 141.91561,0.004 c 0.396,-0.0763 1.044,-0.0763 1.44,0 0.396,0.0763 0.072,0.13867 -0.72001,0.13867 -0.79199,0 -1.11599,-0.0624 -0.71999,-0.13867 z m 15.04,0 c 0.396,-0.0763 1.044,-0.0763 1.44,0 0.396,0.0763 0.072,0.13867 -0.72,0.13867 -0.792,0 -1.116,-0.0624 -0.72,-0.13867 z m 14.42,0.007 c 0.231,-0.0924 0.507,-0.0811 0.61333,0.0253 0.10633,0.10633 -0.0827,0.18196 -0.42,0.16807 -0.37278,-0.0154 -0.44861,-0.0912 -0.19333,-0.19334 z m -196.16,-0.32 c 0.231,-0.0924 0.507,-0.0811 0.61333,0.0253 0.10633,0.10633 -0.0827,0.18196 -0.42,0.16807 -0.37278,-0.0154 -0.44861,-0.0912 -0.19333,-0.19334 z m 192.32,0 c 0.231,-0.0924 0.507,-0.0811 0.61333,0.0253 0.10633,0.10633 -0.0827,0.18196 -0.42,0.16807 -0.37278,-0.0154 -0.44861,-0.0912 -0.19333,-0.19334 z m -187.05391,-0.3231 c 0.31135,-0.0811 0.74335,-0.0758 0.96,0.0119 0.21665,0.0877 -0.0381,0.15404 -0.56609,0.14752 -0.528,-0.007 -0.70526,-0.0782 -0.39391,-0.15938 z m 181.43999,0 c 0.31135,-0.0811 0.74336,-0.0758 0.96,0.0119 0.21665,0.0877 -0.0381,0.15404 -0.56609,0.14752 -0.528,-0.007 -0.70526,-0.0782 -0.39391,-0.15938 z m -170.08609,-0.33255 c 0.748,-0.0674 1.972,-0.0674 2.72,0 0.748,0.0674 0.136,0.1225 -1.36,0.1225 -1.496,0 -2.108,-0.0551 -1.36,-0.1225 z m 156.81072,-0.002 c 0.9299,-0.0649 2.3699,-0.0642 3.2,0.002 0.8301,0.0657 0.0693,0.11873 -1.69072,0.1179 -1.76,-8.4e-4 -2.43918,-0.0546 -1.50928,-0.11942 z m -24.54546,-1.23038 c 0.0154,-0.37278 0.0912,-0.4486 0.19333,-0.19333 0.0924,0.231 0.0811,0.507 -0.0253,0.61333 -0.10633,0.10634 -0.18196,-0.0827 -0.16807,-0.42 z M 242.4705,147.9979 c 0,-0.44 0.0726,-0.62 0.16141,-0.4 0.0888,0.22 0.0888,0.58 0,0.8 -0.0888,0.22 -0.16141,0.04 -0.16141,-0.4 z m 106.90373,-4.48 c 0,-0.616 0.0658,-0.868 0.14634,-0.56 0.0805,0.308 0.0805,0.812 0,1.12 -0.0805,0.308 -0.14634,0.056 -0.14634,-0.56 z m -107.24899,-0.18667 c 0.0154,-0.37278 0.0912,-0.4486 0.19333,-0.19333 0.0924,0.231 0.0811,0.507 -0.0253,0.61333 -0.10634,0.10634 -0.18196,-0.0827 -0.16807,-0.42 z M 366.31051,132.9579 c 0,-0.44 0.0726,-0.62 0.16141,-0.4 0.0888,0.22 0.0888,0.58 0,0.8 -0.0888,0.22 -0.16141,0.04 -0.16141,-0.4 z m -118.13052,-4.92082 c 0,-0.0665 0.252,-0.31845 0.56,-0.56 0.50754,-0.39804 0.51885,-0.38672 0.12082,0.12082 -0.41804,0.53304 -0.68082,0.70255 -0.68082,0.43918 z m 94.67918,-0.43918 c -0.39804,-0.50754 -0.38673,-0.51886 0.12081,-0.12082 0.53305,0.41804 0.70255,0.68082 0.43919,0.68082 -0.0665,0 -0.31845,-0.252 -0.56,-0.56 z m -91.47918,-2.76082 c 0,-0.0665 0.252,-0.31845 0.56,-0.56 0.50754,-0.39804 0.51885,-0.38672 0.12082,0.12082 -0.41804,0.53304 -0.68082,0.70255 -0.68082,0.43918 z m 114.90526,-3.58585 c 0.0154,-0.37278 0.0912,-0.44861 0.19333,-0.19333 0.0924,0.231 0.0811,0.507 -0.0253,0.61333 -0.10634,0.10634 -0.18196,-0.0827 -0.16807,-0.42 z m -72.09272,-0.69058 c 1.10689,-0.0627 2.83489,-0.0622 3.84,0.001 1.0051,0.0633 0.0995,0.11457 -2.01254,0.11393 -2.11201,-6.3e-4 -2.93437,-0.0524 -1.82746,-0.11508 z m -8.01254,-0.29468 c 0.22,-0.0888 0.58,-0.0888 0.8,0 0.22,0.0888 0.04,0.1614 -0.4,0.1614 -0.44,0 -0.62,-0.0726 -0.4,-0.1614 z m 18.40609,-0.01 c 0.31135,-0.0811 0.74335,-0.0758 0.96,0.0119 0.21665,0.0876 -0.0381,0.15404 -0.56609,0.14752 -0.528,-0.007 -0.70526,-0.0782 -0.39391,-0.15938 z m -23.52609,-0.31017 c 0.22,-0.0888 0.58,-0.0888 0.8,0 0.22,0.0888 0.04,0.1614 -0.4,0.1614 -0.44,0 -0.62,-0.0726 -0.4,-0.1614 z m 28.48,0 c 0.22,-0.0888 0.58,-0.0888 0.8,0 0.22,0.0888 0.04,0.1614 -0.4,0.1614 -0.44,0 -0.62,-0.0726 -0.4,-0.1614 z m -45.42,-0.32667 c 0.231,-0.0924 0.507,-0.0811 0.61333,0.0253 0.10633,0.10633 -0.0827,0.18196 -0.42,0.16807 -0.37278,-0.0154 -0.44861,-0.0912 -0.19333,-0.19334 z m 12.46,0.007 c 0.22,-0.0888 0.57999,-0.0888 0.8,0 0.22,0.0888 0.04,0.1614 -0.4,0.1614 -0.44,0 -0.62,-0.0726 -0.4,-0.1614 z m 37.76,0 c 0.22,-0.0888 0.57999,-0.0888 0.8,0 0.22,0.0888 0.04,0.1614 -0.4,0.1614 -0.44,0 -0.62,-0.0726 -0.4,-0.1614 z m 7.04,-0.33391 c 0.396,-0.0763 1.044,-0.0763 1.44,0 0.396,0.0763 0.072,0.13868 -0.72001,0.13868 -0.79199,0 -1.11599,-0.0624 -0.71999,-0.13868 z m 32.84958,-25.134157 -0.60959,-0.72 0.72001,0.609596 c 0.396,0.335278 0.72,0.659278 0.72,0.72 0,0.256081 -0.25754,0.06703 -0.83042,-0.609596 z m -120.71906,-9.2 c 0,-0.44 0.0726,-0.62 0.16141,-0.4 0.0888,0.22 0.0888,0.58 0,0.8 -0.0888,0.22 -0.16141,0.04 -0.16141,-0.4 z m 121.27999,0 c 0,-0.44 0.0726,-0.62 0.16141,-0.4 0.0888,0.22 0.0888,0.58 0,0.8 -0.0888,0.22 -0.16141,0.04 -0.16141,-0.4 z m -121.28,-5.12 c 0,-0.44 0.0726,-0.62 0.16141,-0.4 0.0888,0.22 0.0888,0.58 0,0.8 -0.0888,0.22 -0.16141,0.04 -0.16141,-0.4 z m 121.28,0 c 0,-0.44 0.0726,-0.62 0.16141,-0.4 0.0888,0.22 0.0888,0.58 0,0.8 -0.0888,0.22 -0.16141,0.04 -0.16141,-0.4 z m -48.11052,-5.978597 c 0.231,-0.09244 0.507,-0.08107 0.61333,0.02526 0.10634,0.106334 -0.0827,0.181965 -0.42,0.16807 -0.37277,-0.01535 -0.4486,-0.09118 -0.19333,-0.193333 z m -17.77391,-0.32316 c 0.31135,-0.08113 0.74335,-0.0758 0.96,0.01186 0.21665,0.08765 -0.0381,0.154038 -0.56609,0.147516 -0.528,-0.0065 -0.70526,-0.07824 -0.39391,-0.159373 z m 13.59391,0.0098 c 0.22,-0.08877 0.58,-0.08877 0.8,0 0.22001,0.08877 0.04,0.161403 -0.39999,0.161403 -0.44,0 -0.62001,-0.07263 -0.40001,-0.161403 z"
     id="path3" /><path
     style="fill:#1e1c1d"
     d="m 278.36968,252.45669 c -1.25636,-1.25636 -0.86365,-2.45791 1.50958,-4.61879 3.01666,-2.74674 2.86073,-1.24246 2.86073,-27.59752 0,-18.01336 -0.0825,-22.66872 -0.4,-22.56448 -0.62804,0.20621 -1.79422,2.10949 -2.38578,3.89372 -0.46404,1.39962 -0.5678,3.80777 -0.73886,17.14828 -0.12227,9.53498 -0.32945,15.89742 -0.53727,16.4987 -1.50183,4.34535 -4.14083,6.81658 -8.89809,8.33241 -3.42504,1.09134 -9.00805,1.44552 -10.22427,0.64862 -1.72861,-1.13263 -0.81259,-2.74709 2.44742,-4.31349 2.48519,-1.1941 4.40596,-3.17547 5.2581,-5.42399 0.50185,-1.3242 0.58296,-2.97193 0.68438,-13.90225 0.0936,-10.08714 0.0366,-12.39896 -0.30529,-12.39441 -0.23119,0.003 -1.71634,0.21852 -3.30034,0.47878 -3.34148,0.54902 -9.02615,0.61584 -11.95539,0.14053 -8.08024,-1.31113 -13.9905,-5.83918 -18.77601,-14.3849 -3.63918,-6.49868 -6.03517,-9.11345 -10.81558,-11.80317 -3.8173,-2.14782 -4.55954,-2.89304 -4.41094,-4.42861 0.14504,-1.49869 5.65094,-1.87562 9.10162,-0.62309 4.63198,1.68132 7.57651,4.21472 11.42874,9.83301 2.98682,4.35614 5.44817,6.77019 8.57315,8.40841 3.36036,1.76162 5.65908,2.23203 9.97441,2.04115 3.68238,-0.16288 6.20546,-0.73875 9.63285,-2.1986 1.39837,-0.59562 1.50063,-0.72753 2.02206,-2.60822 0.93673,-3.37863 2.97543,-6.85532 5.50785,-9.39279 l 2.28735,-2.29191 -2.76506,-0.37385 c -16.35121,-2.2108 -28.79449,-7.39974 -36.78923,-15.34136 -2.52875,-2.51195 -6.77582,-8.20217 -6.77582,-9.07824 0,-0.55826 -15.06473,0.4886 -24.8,1.72337 -8.87551,1.12573 -18.79875,3.00725 -25.52246,4.83926 -2.20897,0.60188 -3.27522,0.62566 -2.71,0.0604 0.71216,-0.71216 15.62004,-3.86811 23.91246,-5.06219 8.72241,-1.256 21.36262,-2.41931 26.32,-2.4223 1.188,-7.1e-4 2.16,-0.0534 2.16,-0.11704 0,-0.0637 -0.43034,-1.06482 -0.9563,-2.2248 -0.87669,-1.93351 -1.05518,-2.12762 -2.14423,-2.33193 -1.88517,-0.35366 -22.41578,0.11848 -28.57947,0.65724 -6.09157,0.53246 -10.7758,1.12371 -16.91793,2.13543 -2.53625,0.41776 -4.06859,0.54128 -4.26599,0.34389 -0.47838,-0.47839 7.46644,-1.81863 16.38392,-2.76386 7.68637,-0.81474 14.69556,-1.13718 24.75423,-1.13874 7.99992,-0.001 9.52662,-0.0735 9.38447,-0.4439 -3.28129,-8.55087 -4.45313,-25.8935 -2.35157,-34.80154 1.48216,-6.28252 4.3628,-12.2312 8.29914,-17.138179 l 2.16628,-2.700454 -0.6074,-1.978707 c -1.0358,-3.374271 -1.44885,-6.608493 -1.41743,-11.098707 0.0344,-4.910431 0.56871,-8.296007 2.0632,-13.072124 1.33228,-4.257753 1.6627,-4.411475 7.35023,-3.419652 6.14666,1.071888 13.15609,4.144228 21.7099,9.515789 1.94687,1.222579 3.26319,1.851106 3.68,1.757156 9.79101,-2.206891 16.07258,-3.058333 24.48894,-3.319383 8.77551,-0.27219 15.23375,0.263225 24.32,2.016228 l 4.32,0.833454 2.59289,-1.610002 c 9.38385,-5.82669 17.11863,-8.952464 23.5491,-9.516639 3.58239,-0.314299 3.78486,-0.162941 5.00708,3.743049 1.52531,4.874625 2.035,8.152951 2.05721,13.232124 0.0175,4.000678 -0.53817,8.703528 -1.24645,10.549274 -0.10823,0.282043 0.45061,1.1355 1.41345,2.158601 3.65308,3.881741 7.32279,10.032372 9.12385,15.292122 1.3827,4.03796 2.181,8.72432 2.3712,13.92 0.27437,7.49502 -0.66735,18.73941 -2.00049,23.88619 -0.25731,0.9934 -0.46784,1.87544 -0.46784,1.96009 0,0.0846 6.012,0.22967 13.36,0.32229 13.57522,0.1711 19.38086,0.5444 28.72,1.84666 6.98472,0.97396 10.17627,1.6165 9.81644,1.97633 -0.20735,0.20735 -1.66975,0.0881 -4.26598,-0.34797 -11.17887,-1.87749 -19.58824,-2.58244 -33.39046,-2.79908 -5.984,-0.0939 -11.7317,-0.0524 -12.77266,0.0924 l -1.89265,0.26313 -0.56255,1.6 c -0.95128,2.70566 -0.94256,2.71955 1.70786,2.72316 5.42976,0.007 17.80293,1.12489 26.8,2.42044 8.29242,1.19408 23.20031,4.35003 23.91246,5.06219 0.55066,0.55067 -0.46368,0.52259 -2.69806,-0.0747 -12.62826,-3.37564 -29.84641,-5.84098 -46.36002,-6.63797 l -4.50565,-0.21745 -1.05698,2.04216 c -5.14733,9.94493 -14.17477,16.45534 -27.85676,20.08975 -3.81315,1.0129 -11.06323,2.36602 -14.77038,2.75667 l -2.13539,0.22502 2.29539,2.28738 c 2.6647,2.65541 4.36402,5.4033 5.56773,9.00333 l 0.85597,2.56 0.17586,18.56 0.17584,18.56 1.00421,2.11948 c 1.29012,2.72288 2.83633,4.41581 5.16832,5.65874 2.84089,1.51418 3.41654,3.36474 1.31715,4.23434 -1.44535,0.59868 -6.34819,0.18676 -9.43456,-0.79266 -5.25453,-1.66747 -8.16898,-4.75643 -9.06599,-9.60882 -0.21519,-1.16404 -0.35126,-6.93036 -0.35469,-15.02985 -0.004,-10.19038 -0.10886,-13.62873 -0.4656,-15.31227 -0.481,-2.26997 -1.95515,-5.37346 -2.65912,-5.59818 -0.33167,-0.10587 -0.39241,4.21254 -0.317,22.53913 0.0867,21.07963 0.1344,22.77655 0.67948,24.18751 0.56462,1.46156 1.41138,2.51635 3.1825,3.9644 1.182,0.96639 1.42339,2.20539 0.63632,3.26604 -0.93859,1.26483 -2.47285,1.53508 -5.04574,0.8888 -4.90374,-1.23178 -8.98549,-4.21747 -10.66507,-7.80121 l -0.86021,-1.83545 -0.0812,-23.84 c -0.081,-23.80543 -0.0821,-23.84081 -0.75545,-24.4 -0.75961,-0.63085 -1.18705,-0.68689 -1.88339,-0.24692 -0.41732,0.26367 -0.5009,3.4285 -0.64,24.2351 l -0.16,23.93182 -0.87488,1.86749 c -1.8363,3.91967 -4.66607,6.27948 -9.27655,7.73593 -3.36089,1.06171 -5.13959,1.05466 -6.21888,-0.0246 z m -16.83148,-51.4037 c 0.99684,-0.8273 -0.046,-2.17509 -1.68293,-2.17509 -1.13416,0 -2.17264,0.97397 -1.87248,1.75617 0.3911,1.01916 2.52867,1.27103 3.55541,0.41892 z m -7.29096,-0.0797 c 0.97157,-1.17068 -1.05033,-2.72532 -2.71924,-2.09081 -0.94457,0.35913 -1.08409,1.71121 -0.22801,2.20982 0.82687,0.48161 2.50502,0.41384 2.94725,-0.11901 z m 12.95266,-2.2608 c 0.25104,-1.33818 0.0383,-1.79699 -0.71016,-1.53194 -0.6822,0.24156 -1.66975,1.07201 -1.66975,1.40412 0,0.46156 1.00268,1.25326 1.58724,1.25326 0.41179,0 0.64316,-0.32851 0.79267,-1.12544 z m -19.65205,0.31596 c 0.56556,-0.68145 -0.067,-1.99285 -1.08443,-2.24821 -2.19905,-0.55193 -3.24511,0.78064 -1.6177,2.06076 1.0124,0.79635 2.13231,0.87404 2.70213,0.18745 z m -5.27576,-4.66865 c 0.57714,-1.8184 -2.5042,-3.77124 -3.17838,-2.01435 -0.24666,0.64278 0.30072,1.93679 0.98854,2.33692 0.96813,0.56321 1.95483,0.41787 2.18984,-0.32257 z m -4.48086,-5.10006 c 0.29248,-0.47324 -0.0755,-1.76037 -0.67458,-2.35943 -0.64914,-0.64914 -1.93273,-0.64691 -2.18243,0.004 -0.29348,0.7648 -0.24991,0.93674 0.46899,1.85068 0.67474,0.85778 1.99714,1.13741 2.38802,0.50496 z m -4.36793,-4.75236 c 0.65838,-0.41696 0.17189,-1.90157 -0.76266,-2.32738 -0.59434,-0.27079 -0.89904,-0.25879 -1.27118,0.0501 -0.70882,0.58827 -0.60431,1.15108 0.35368,1.90463 0.94592,0.74406 1.05538,0.76835 1.68016,0.37268 z m -3.91747,-3.71352 c 0.26138,-0.68116 -0.4614,-1.43593 -1.37507,-1.43593 -1.0045,0 -1.36263,0.91518 -0.5816,1.48627 0.78622,0.57492 1.72602,0.55073 1.95667,-0.0503 z m 82.51416,-4.6376 c 15.80403,-0.98593 24.51902,-3.91211 30.23732,-10.15262 4.72611,-5.15774 7.07675,-12.39605 7.09438,-21.84571 0.009,-4.6138 -0.41158,-6.55232 -2.25425,-10.4 -1.54161,-3.21901 -3.58817,-5.93597 -6.50663,-8.63802 -5.82729,-5.39517 -12.35926,-6.47002 -31.26605,-5.14488 -8.8753,0.62205 -18.66868,0.62962 -27.06477,0.0209 -8.09082,-0.58657 -17.14502,-0.596 -20.32,-0.0211 -4.73445,0.8572 -8.07162,2.50659 -11.29987,5.58495 -4.62945,4.41449 -7.60368,10.01887 -8.18014,15.41389 -0.77686,7.27053 1.41552,16.18329 5.28258,21.47547 5.07508,6.94541 14.90638,11.40526 28.83277,13.07964 7.52769,0.90506 25.80793,1.22869 35.44466,0.62752 z"
     id="path2" /></svg>
