<?xml version="1.0" encoding="UTF-8" standalone="no"?><!-- Generator: Gravit.io --><svg xmlns="http://www.w3.org/2000/svg" xmlns:xlink="http://www.w3.org/1999/xlink" style="isolation:isolate" viewBox="0 0 999.198 972.671" width="999.198pt" height="972.671pt"><defs><clipPath id="_clipPath_EOKFPX6O8IyMm7TifWCfDjy2HoYNSugA"><rect width="999.198" height="972.671"/></clipPath></defs><g clip-path="url(#_clipPath_EOKFPX6O8IyMm7TifWCfDjy2HoYNSugA)"><g><path d=" M 244.641 878.351 L 291.418 852.119 L 327.171 898.984 L 274.116 928.459 L 244.641 878.351 Z " fill="rgb(128,84,163)"/><path d=" M 459.808 733.924 L 521.705 825.296 L 380.226 916.669 L 321.276 825.296 L 459.808 733.924 Z " fill="rgb(129,85,162)"/><linearGradient id="_lgradient_0" x1="0.2539682625607256" y1="0.15185178963280732" x2="0.7234144902588844" y2="0.863592770395293" gradientTransform="matrix(371.383,0,0,397.911,515.81,574.76)" gradientUnits="userSpaceOnUse"><stop offset="0%" stop-opacity="1" style="stop-color:rgb(158,31,118)"/><stop offset="100%" stop-opacity="1" style="stop-color:rgb(112,75,153)"/></linearGradient><path d=" M 515.81 695.607 L 704.449 574.76 L 887.194 851.824 L 698.554 972.671 L 515.81 695.607 Z " fill="url(#_lgradient_0)"/><path d=" M 760.452 533.495 L 851.824 477.493 L 907.826 568.865 L 819.401 624.867 L 760.452 533.495 Z " fill="rgb(124,83,161)"/><path d=" M 29.475 389.068 L 171.266 295.061 L 263.622 434.633 L 123.794 530.548 L 29.475 389.068 Z " fill="rgb(157,96,173)"/><path d=" M 50.107 235.799 L 100.767 200.806 L 134.416 250.694 L 82.53 285.906 L 50.107 235.799 Z " fill="rgb(157,98,173)"/><linearGradient id="_lgradient_1" x1="0.07830384009081715" y1="0.8534612347976785" x2="0.9172713848249305" y2="0.297709027892353" gradientTransform="matrix(999.198,0,0,783.442,0,106.404)" gradientUnits="userSpaceOnUse"><stop offset="0%" stop-opacity="1" style="stop-color:rgb(107,74,157)"/><stop offset="100%" stop-opacity="1" style="stop-color:rgb(216,53,128)"/></linearGradient><path d=" M 0 660.237 L 833.874 106.404 L 999.198 333.066 L 156.482 889.846 L 0 660.237 Z " fill="url(#_lgradient_1)"/><path d=" M 468.65 97.267 L 556.545 43.829 L 651.395 179.797 L 560.023 238.746 L 468.65 97.267 Z " fill="rgb(151,94,171)"/><linearGradient id="_lgradient_2" x1="0.24999990526799243" y1="0.1544117659781266" x2="0.7249352344732891" y2="0.8630453174305903" gradientTransform="matrix(371.383,0,0,400.858,132.637,0)" gradientUnits="userSpaceOnUse"><stop offset="0%" stop-opacity="1" style="stop-color:rgb(223,51,131)"/><stop offset="100%" stop-opacity="1" style="stop-color:rgb(196,20,126)"/></linearGradient><path d=" M 318.329 0 L 504.02 277.064 L 318.329 400.858 L 132.637 123.794 L 318.329 0 Z " fill="url(#_lgradient_2)"/></g><g opacity="0.14"><path d=" M 486.051 772.664 L 459.808 733.924 L 352.284 804.845 L 378.591 844.232 L 486.051 772.664 L 486.051 772.664 L 486.051 772.664 L 486.051 772.664 L 486.051 772.664 Z  M 728.487 611.204 L 704.449 574.76 L 515.81 695.607 L 542.041 735.376 L 728.487 611.204 L 728.487 611.204 L 728.487 611.204 L 728.487 611.204 L 728.487 611.204 Z  M 810.913 502.567 L 760.452 533.495 L 785.913 572.96 L 835.619 539.856 L 810.913 502.567 L 810.913 502.567 L 810.913 502.567 L 810.913 502.567 Z  M 613.333 204.352 L 560.023 238.746 L 533.149 197.135 L 585.36 162.13 L 613.333 204.352 L 613.333 204.352 L 613.333 204.352 Z  M 476.09 235.39 L 504.02 277.064 L 318.329 400.858 L 290.723 359.669 L 476.09 235.39 L 476.09 235.39 Z  M 237.59 395.293 L 263.622 434.633 L 154.848 509.246 L 127.87 468.855 L 237.59 395.293 Z " fill-rule="evenodd" fill="rgb(0,0,0)"/></g></g></svg>