<?xml version="1.0" encoding="UTF-8" standalone="no"?>
<svg
   viewBox="0 0 999.99988 999.99988"
   xml:space="preserve"
   version="1.1"
   id="svg2"
   width="999.99988"
   height="999.99988"
   xmlns:xlink="http://www.w3.org/1999/xlink"
   xmlns="http://www.w3.org/2000/svg"
   xmlns:svg="http://www.w3.org/2000/svg"><defs
     id="defs2"><linearGradient
       id="linearGradient7"><stop
         style="stop-color:#ffffff;stop-opacity:1;"
         offset="0.73979592"
         id="stop7" /><stop
         style="stop-color:#d9d9d9;stop-opacity:1;"
         offset="1"
         id="stop8" /></linearGradient><radialGradient
       xlink:href="#linearGradient7"
       id="radialGradient8"
       cx="499.99994"
       cy="499.99994"
       fx="499.99994"
       fy="499.99994"
       r="499.99994"
       gradientUnits="userSpaceOnUse"
       gradientTransform="matrix(1.212783,-0.01896878,0.0191015,1.2212686,-115.94223,-101.14987)" /></defs><rect
     style="fill:url(#radialGradient8);fill-opacity:1;stroke-width:6.52558;stroke-linecap:square"
     id="rect2"
     width="999.99988"
     height="999.99988"
     x="0"
     y="0"
     ry="259.25" /><path
     fill="currentColor"
     d="M 582.03066,437.22711 A 98.436878,102.13353 0 0 1 483.59381,335.09357 V 198.91552 H 352.34462 a 65.624585,68.089021 0 0 0 -65.62459,68.08902 V 709.5832 a 65.624585,68.089021 0 0 0 65.62459,68.08902 H 647.65526 A 65.624585,68.089021 0 0 0 713.27985,709.5832 V 437.22711 Z M 516.40607,335.09357 a 65.624585,68.089021 0 0 0 65.62459,68.08904 H 699.8268 L 516.40607,212.87378 Z M 352.34462,164.87101 h 164.06145 l 229.68607,238.3116 V 709.5832 A 98.436878,102.13353 0 0 1 647.65526,811.71673 H 352.34462 A 98.436878,102.13353 0 0 1 253.90774,709.5832 V 267.00454 a 98.436878,102.13353 0 0 1 98.43688,-102.13353"
     id="path1"
     style="fill:#009bff;fill-opacity:1;stroke-width:33.4226" /></svg>
