<?xml version="1.0" encoding="UTF-8" standalone="no"?>
<svg
   width="4.278368in"
   height="4.294775in"
   viewBox="0 0 308.04273 309.22351"
   version="1.1"
   id="svg1"
   xmlns="http://www.w3.org/2000/svg"
   xmlns:svg="http://www.w3.org/2000/svg">
  <defs
     id="defs1" />
  <g
     id="g1"
     transform="translate(-59.944771,-18.792956)">
    <path
       id="Selection #1"
       fill="none"
       stroke="black"
       stroke-width="1"
       d="m 202,19.42 c 17.48,-2.12 42.3,1.37 59,6.91 26.76,8.89 48.85,22.58 67.83,43.67 52.21,58 52.21,149 0,207 -13.03,14.48 -28.44,26.06 -45.83,34.75 -24.65,12.33 -47.65,16.57 -75,16.25 -13.11,-0.16 -29.56,-3.52 -42,-7.67 C 139.86,311.63 117.68,297.57 99.17,277 60.75,234.32 49.27,170.39 70.45,117 85.82,78.25 115.31,47.06 154,31.01 173.6,22.88 181.88,22.3 202,19.42 Z"
       style="fill:#e32d15;fill-opacity:1;stroke:none" />
    <path
       id="Selection"
       fill="none"
       stroke="#000000"
       stroke-width="1"
       d="m 197.73074,165.51956 c -0.84,7.91 -10.94,29.11 -14.32,38 0,0 -7.67,19 -7.67,19 -5.2,12.61 -10.2,27.16 -27.01,25.9 -3.4,-0.25 -6.2,-1.34 -8.79,-3.61 -9.15,-8.01 -0.7,-24.3 3.07,-33.29 0,0 22.17,-55 22.17,-55 0,0 11.21,-28 11.21,-28 4.27,-12.36 6.38,-25.39 -9.66,-29.830004 -17.97,-4.96 -40.42,19.250004 -37.52,36.830004 1.12,6.81 5.65,12.22 11.52,15.64 4.23,2.46 8.96,3.32 11.99,7.66 6.45,9.21 -1.52,25.85 -19.99,24.38 -22.06,-1.76 -36.749996,-22.6 -36.999996,-43.68 -0.18,-15.79 1.86,-27.51 10.699996,-41.000004 12.61,-19.27 34.03,-32.72 57.3,-33 4.54,-0.05 9.55,-0.22 14,0.62 19.68,3.69 37.9,19.31 38,40.380004 0,0 0,7 0,7 -0.12,9.84 -4.81,23.11 -9,32 4.36,-3.27 19.7,-20.06 24.17,-25 0,0 28.79,-30.000004 28.79,-30.000004 5.34,-5.58 10.04,-11.72 16.04,-16.67 11.69,-9.64 30.98,-9.86 29.96,9.67 -0.52,9.94 -11.38,19.340004 -17.96,26.000004 0,0 -33,35 -33,35 0,0 -12.09,13 -12.09,13 -1.67,1.8 -5.02,4.88 -5.94,7 -1.27,2.94 0.72,7.1 1.7,10 0,0 9.14,25 9.14,25 0,0 11.14,30 11.14,30 1.8,4.92 3.23,10.86 7.26,14.47 4.82,4.31 10.71,4.52 16.79,4.53 0,0 64,0 64,0 -2.87,7.78 -9.08,15.5 -14.21,22 -2.24,2.84 -5.6,7.36 -8.79,8.98 -2.4,1.21 -5.37,1.01 -8,1.02 0,0 -51,0 -51,0 -8.13,-0.1 -17.85,-1.78 -23.53,-8.1 -6.15,-6.84 -9.06,-17.42 -12.28,-25.9 0,0 -20.28,-55 -20.28,-55 -3.23,-8.53 -5.38,-18.68 -10.91,-26 z"
       style="fill:#ffffff;fill-opacity:1;stroke:none" />
  </g>
</svg>
