<?xml version="1.0" encoding="UTF-8" standalone="no"?>
<!-- Created with Inkscape (http://www.inkscape.org/) -->

<svg
   width="39.915737mm"
   height="50mm"
   viewBox="0 0 39.915738 50"
   version="1.1"
   id="svg1"
   xml:space="preserve"
   xmlns="http://www.w3.org/2000/svg"
   xmlns:svg="http://www.w3.org/2000/svg"><defs
     id="defs1" /><g
     id="layer1"
     transform="translate(-67.876095,-128.56167)"><g
       id="g7"
       transform="matrix(1.2538452,0,0,1.2538452,-10.907967,-32.634762)"><path
         style="fill:#00fdfe"
         d="m 70.793711,160.43834 -0.0011,-8.00066 3.937,3.93632 c 2.16535,2.16497 3.937,3.99044 3.937,4.0566 0,0.0662 -1.771163,1.89512 -3.935917,4.06434 l -3.935917,3.94406 z"
         id="path6" /><path
         style="fill:#00e7fd"
         d="m 78.793628,160.48277 c -4.3307,-4.36489 -7.883563,-7.96094 -7.895252,-7.99123 -0.01169,-0.0303 1.750436,-1.82644 3.915833,-3.99146 l 3.937085,-3.9364 v 7.91565 7.91565 l 3.933643,-3.93296 c 2.163503,-2.16313 3.9544,-3.9122 3.979772,-3.88683 0.02537,0.0254 0.03641,3.60059 0.02452,7.94494 l -0.02161,7.89881 z"
         id="path5" /><path
         style="fill:#314efd"
         d="m 86.689662,160.41528 -0.02204,-7.93664 4.0005,-3.99982 4.0005,-3.99982 v 7.95867 7.95867 l -3.978465,3.97779 -3.978465,3.97779 z m -23.8557,-7.93578 v -8.00049 l 3.979333,3.97865 3.979333,3.97866 v -7.95867 -7.95866 l 3.979333,-3.97866 3.979333,-3.97866 v 8.00083 8.00083 l -7.958666,7.95833 -7.958666,7.95833 z"
         id="path4" /><path
         style="fill:#273097"
         d="m 66.813181,164.37515 -3.936431,-3.93711 3.957939,-3.95794 3.957939,-3.95794 v 7.89505 c 0,4.34228 -0.0097,7.89506 -0.02151,7.89506 -0.01183,0 -1.792902,-1.77171 -3.957939,-3.93712 z m 11.938113,-11.93856 v -7.95867 l 3.979334,-3.97865 3.979333,-3.97866 v 7.95867 7.95866 l -3.979333,3.97866 -3.979334,3.97866 z"
         id="path2" /></g></g></svg>
