<?xml version="1.0" encoding="UTF-8" standalone="no"?>
<svg
   width="1998.1328"
   height="1998.1035"
   viewBox="0 0 840.81429 840.80196"
   version="1.1"
   id="svg2"
   xml:space="preserve"
   xmlns:xlink="http://www.w3.org/1999/xlink"
   xmlns="http://www.w3.org/2000/svg"
   xmlns:svg="http://www.w3.org/2000/svg"><defs
     id="defs2"><linearGradient
       id="linearGradient255"><stop
         style="stop-color:#220066;stop-opacity:1;"
         offset="0"
         id="stop255" /><stop
         style="stop-color:#34009d;stop-opacity:1;"
         offset="1"
         id="stop256" /></linearGradient><linearGradient
       id="linearGradient245"><stop
         style="stop-color:#3500a0;stop-opacity:1;"
         offset="0"
         id="stop245" /><stop
         style="stop-color:#4500d0;stop-opacity:1;"
         offset="1"
         id="stop246" /></linearGradient><linearGradient
       xlink:href="#linearGradient245"
       id="linearGradient253"
       gradientUnits="userSpaceOnUse"
       x1="575.41614"
       y1="451.99612"
       x2="995.99585"
       y2="349.47446"
       gradientTransform="translate(-234.99798,72.508943)" /><linearGradient
       xlink:href="#linearGradient255"
       id="linearGradient256"
       x1="592.57928"
       y1="481.50171"
       x2="946.40717"
       y2="374.51865"
       gradientUnits="userSpaceOnUse" /></defs><g
     id="g256"
     transform="translate(-105.59286,-105.60518)"><path
       id="circle249"
       style="display:inline;opacity:1;fill:#5805ff;fill-opacity:1;stroke-width:0"
       d="M 525.82741,105.60518 A 420.40738,420.40738 0 0 0 105.59286,526 420.40738,420.40738 0 0 0 526,946.40714 420.40738,420.40738 0 0 0 760.9979,873.89887 420.40738,420.40738 0 0 1 760.8253,873.91119 420.40738,420.40738 0 0 1 340.41816,453.50323 420.40738,420.40738 0 0 1 525.82741,105.60518 Z" /><path
       id="circle253"
       style="display:inline;opacity:1;fill:url(#linearGradient253);fill-opacity:1;stroke-width:0"
       d="M 525.82741,105.60518 A 420.40738,420.40738 0 0 0 340.41816,453.50323 420.40738,420.40738 0 0 0 760.8253,873.91119 420.40738,420.40738 0 0 0 946.23455,526.01233 420.40738,420.40738 0 0 0 525.82741,105.60518 Z" /><path
       id="circle252"
       style="display:inline;opacity:1;fill:url(#linearGradient256);stroke-width:0"
       d="M 670.76506,132.12298 A 420.40738,420.40738 0 0 0 592.57927,374.7035 420.40738,420.40738 0 0 0 868.78434,768.47367 420.40738,420.40738 0 0 0 946.40714,526 420.40738,420.40738 0 0 0 670.76506,132.12298 Z" /></g></svg>
