<?xml version="1.0" encoding="UTF-8" standalone="no"?>
<svg
   width="52.044006mm"
   height="59.882538mm"
   viewBox="0 0 295.03754 339.47415"
   version="1.1"
   id="svg1"
   xml:space="preserve"
   xmlns="http://www.w3.org/2000/svg"
   xmlns:svg="http://www.w3.org/2000/svg"><defs
     id="defs1" /><path
     id="rect1"
     style="fill:#f9f9f9;stroke-width:0"
     d="M 20.961866,88.779671 80.559329,55.898312 230.84692,62.489544 270.86018,88.779671 V 244.96612 l -46.44491,37.40255 -152.5102,2.56485 -50.943204,-39.9674 z" /><path
     id="Selection"
     fill="none"
     stroke="black"
     stroke-width="1"
     d="m 147.01509,0 c 4.67,0.37 7.98,3.08 12,5.36 0,0 23,13.3 23,13.3 0,0 82,47.27 82,47.27 0,0 21,12.15 21,12.15 2.58,1.48 7.48,3.85 8.98,6.33 1.24,2.04 1.02,5.32 1.02,7.67 0,0 0,156 0,156 0,2.15 0.26,5.56 -0.99,7.37 -1.3,1.88 -15.98,10.04 -19.01,11.78 0,0 -64,36.86 -64,36.86 0,0 -44,25.41 -44,25.41 -3.72,2.16 -15.47,9.77 -19,9.97 -3.63,0.2 -14.31,-6.85 -18,-8.97 0,0 -41.999999,-24.27 -41.999999,-24.27 0,0 -67,-38.57 -67,-38.57 -3.78,-2.2 -18.2700003,-9.9 -19.9800003,-12.79 -1.23,-2.09 -1.02,-5.41 -1.02,-7.79 0,0 0,-155 0,-155 0,-2.31 -0.22,-5.63 1.02,-7.62 1.5,-2.41 7.37,-5.31 9.9800003,-6.8 0,0 22,-12.73 22,-12.73 0,0 75.999999,-43.85 75.999999,-43.85 z m -41,82.08 c -16.209999,-3.7 -20.999999,-7.21 -38.999999,-7 -4.39,0.06 -8.77,0.72 -13,1.92 -25.52,7.29 -20.22,35.8 -12.14,54.08 12.81,28.97 40.1,56.41 64.139999,76.41 6.95,5.79 22.97,19.03 31,21.59 0,0 0,2 0,2 0,0 -17,8.22 -17,8.22 -13.29,6.28 -33.349999,13.69 -47.999999,14.69 -13.8,0.94 -26.34,-4.16 -25.99,-19.91 0.31,-13.36 8.26,-22.8 9.99,-32 0,0 -9,-4 -9,-4 0,0 -5.1,10 -5.1,10 -3.86,8.45 -7.11,19.68 -6.89,29 0.35,14.34 10.05,24.32 23.99,26.78 3.96,0.42 8.92,0.23 13,0 17.26,0.19 37.489999,-7.23 52.999999,-14.56 0,0 21,-10.66 21,-10.66 4.69,-1.19 8.54,2.71 14,4.44 0,0 4,-10 4,-10 0,0 -5,-2 -5,-2 0,0 0,-2 0,-2 5.98,-2.29 10.92,-6.56 16,-10.37 10.24,-7.69 19.75,-15.75 29,-24.59 2.17,-2.08 8.16,-6.82 9.26,-9.05 1.61,-3.3 -1.81,-7.79 -5.26,-7.79 -3.28,0 -10.4,8.29 -13,10.71 -10.21,9.5 -21.77,17.96 -33,26.21 -4.91,3.6 -11.67,10.49 -18,7.12 -6.1,-3.25 -24.1,-17.12 -30,-21.99 -19.749999,-16.29 -36.919999,-32.88 -51.329999,-54.25 -6.97,-10.35 -16.36,-26.31 -16.66,-39 -0.05,-2.42 -0.08,-5.71 0.64,-8 5.43,-17.32 32.5,-12.23 45.35,-8.57 4.9,1.39 5.64,2.09 10.999999,2.57 z m 142,60 c 7.52,-15.64 12.22,-21.73 12,-40 -0.27,-22.2 -18.69,-27.09 -37,-27 -17.76,0.08 -36.98,8.44 -53,15.42 0,0 -20,10.27 -20,10.27 -4.68,1.49 -9.82,-2.68 -14,-4.69 0,0 -5,10 -5,10 0,0 6,4 6,4 -6.28,2.32 -10.71,6.16 -16,10.13 0,0 -26.999999,22.04 -26.999999,22.04 -2.49,2.24 -11.96,11.11 -12.66,13.79 -0.92,3.49 4.26,6.43 6.66,8.04 15.019999,-15.02 26.059999,-24.42 42.999999,-37.13 2.99,-2.24 13.9,-10.83 17.28,-10.31 1.97,0.31 7.8,4.48 9.72,5.78 0,0 22,16.58 22,16.58 22.13,18.37 38.31,33.93 54.33,58.08 6.92,10.43 14.24,23.24 15.34,36 0.21,2.41 -0.13,4.67 -0.71,7 -4.76,18.96 -31.2,14.07 -44.96,10.26 0,0 -11,-3.26 -11,-3.26 -1.03,2.35 -3.33,7.03 -1.89,9.49 1.15,1.95 5.77,3.16 7.89,3.79 7.7,2.3 14.95,3.71 23,3.56 0,0 15,0 15,0 10.04,-1.84 19.34,-8.86 22.21,-18.84 0.99,-3.45 0.81,-7.42 0.79,-11 -0.08,-16.69 -9.32,-32.5 -18.33,-46 -21.72,-32.52 -51.39,-57.48 -83.67,-79 23.6,-11.36 42.6,-23.32 70,-23 11.57,0.14 20.37,4.57 21.7,17 1.22,11.42 -8.96,26.7 -10.7,34 z m -104,5.32 c -4.32,0.98 -7.5,2.08 -10.96,5.02 -17.27,14.67 -5.13,43.82 19.96,39.33 16.2,-2.89 21.83,-22.98 12.89,-35.58 -5.16,-7.28 -13.38,-9.67 -21.89,-8.77 z"
     style="fill:#673ab8;fill-opacity:1;stroke:none" /></svg>
