<?xml version="1.0" encoding="UTF-8" standalone="no"?>
<svg
   width="256"
   height="230"
   viewBox="0 0 256 230"
   version="1.1"
   preserveAspectRatio="xMidYMid"
   id="svg4"
   xmlns="http://www.w3.org/2000/svg"
   xmlns:svg="http://www.w3.org/2000/svg">
  <defs
     id="defs4" />
  <path
     id="path2"
     style="fill:#53c1de;fill-opacity:1"
     d="m 174.35547,14.515625 c -11.30743,-0.08011 -25.80011,7.083144 -40.40235,19.791016 -1.87222,1.629306 -3.75029,3.354226 -5.62695,5.162109 -1.25044,-1.196139 -2.49893,-2.351387 -3.74414,-3.457031 C 104.17728,17.894275 83.724498,10.259474 71.443359,17.369141 59.666981,24.186409 56.178471,44.428142 61.134766,69.757812 c 0.478616,2.446576 1.039215,4.944088 1.671875,7.484376 -2.894624,0.821691 -5.689464,1.697011 -8.363282,2.628906 -23.922378,8.340394 -39.201171,21.412176 -39.201171,34.970706 0,14.00334 16.401344,28.04985 41.318359,36.5664 1.966349,0.67208 4.00668,1.30686 6.109375,1.91016 -0.682531,2.74742 -1.275113,5.44045 -1.773438,8.06641 -4.725834,24.89006 -1.036023,44.6535 10.708985,51.42773 12.13152,6.99584 32.492781,-0.19545 52.318361,-17.52539 1.56697,-1.36989 3.13943,-2.82299 4.71484,-4.3457 2.04197,1.96634 4.07954,3.82868 6.10742,5.57421 19.20338,16.52515 38.17015,23.19745 49.9043,16.4043 12.11946,-7.01595 16.05887,-28.24732 10.94531,-54.07812 -0.39053,-1.97279 -0.84508,-3.98785 -1.35547,-6.03907 1.42982,-0.42271 2.83249,-0.85882 4.20118,-1.3125 25.9036,-8.58251 42.75781,-22.45806 42.75781,-36.64843 0,-13.6076 -15.76961,-26.766844 -40.17383,-35.167972 -2.34402,-0.80681 -4.77452,-1.569068 -7.27539,-2.291016 0.41105,-1.67757 0.78957,-3.335192 1.125,-4.96289 5.5061,-26.727312 1.90649,-48.258502 -10.38672,-55.347656 -2.94691,-1.699391 -6.36368,-2.529939 -10.13281,-2.556641 z m 0.46875,9.644531 c 1.87996,0.08391 3.50986,0.507317 4.8418,1.275391 7.56656,4.363454 10.5079,21.960957 5.7539,45.037109 -0.30326,1.47245 -0.64479,2.972278 -1.01562,4.492188 -9.37445,-2.163025 -19.55308,-3.773572 -30.21094,-4.773438 -6.20874,-8.841534 -12.64346,-16.879048 -19.10156,-23.83789 1.73629,-1.670332 3.47062,-3.262609 5.19726,-4.765625 13.5538,-11.795359 26.38869,-17.791325 34.53516,-17.427735 z m -93.380861,0.212891 c 8.69603,-0.355817 22.413961,6.145108 36.728521,18.855469 1.12614,0.999866 2.25682,2.046187 3.39062,3.128906 -6.56509,7.049337 -13.05137,15.074904 -19.24805,23.820312 -10.626889,0.984985 -20.799611,2.568717 -30.152341,4.6875 -0.588014,-2.36533 -1.108304,-4.688916 -1.552734,-6.960937 -4.246414,-21.701839 -1.426875,-38.073583 5.669922,-42.181641 1.417373,-0.82056 3.157286,-1.267497 5.164062,-1.349609 z m 46.884761,28.884765 c 4.45235,4.823571 8.9113,10.207639 13.29688,16.050782 -4.41936,-0.208742 -8.89323,-0.316406 -13.4043,-0.316406 -4.46842,0 -8.90876,0.105426 -13.30078,0.310546 4.39001,-5.788846 8.88629,-11.165848 13.4082,-16.044922 z m -0.10742,25.386719 c 6.99545,0 13.89536,0.266896 20.61328,0.779297 3.73643,5.515352 7.38358,11.330928 10.88672,17.382813 3.54298,6.119849 6.7989,12.184349 9.74219,18.130859 -2.93444,6.04866 -6.18171,12.17203 -9.70898,18.28906 -3.53212,6.12429 -7.15852,11.97166 -10.83985,17.49024 -6.70505,0.47942 -13.63315,0.72656 -20.69336,0.72656 -7.03163,0 -13.87062,-0.21896 -20.45703,-0.64648 -3.82973,-5.59097 -7.53533,-11.45525 -11.04492,-17.51758 h 0.002 c -3.500335,-6.04586 -6.72342,-12.14234 -9.642578,-18.20508 2.918354,-6.07683 6.131103,-12.17986 9.611328,-18.214845 3.48948,-6.05108 7.1627,-11.885434 10.95703,-17.441406 6.71995,-0.507978 13.61016,-0.773438 20.57422,-0.773438 z m -32.966794,2.009766 c -2.372972,3.701434 -4.686338,7.499584 -6.925781,11.382812 -2.23341,3.872773 -4.361477,7.774225 -6.378906,11.683591 -2.810967,-6.666438 -5.215349,-13.220974 -7.179688,-19.550778 6.446844,-1.442687 13.320814,-2.621537 20.484375,-3.515625 z m 65.951174,0.01563 c 7.20941,0.911382 14.11686,2.121069 20.60351,3.601562 -1.94744,6.24132 -4.37519,12.767256 -7.23242,19.457041 -2.0496,-3.891286 -4.21712,-7.814263 -6.5,-11.757822 -2.23582,-3.861912 -4.5311,-7.633131 -6.87109,-11.300781 z m -95.806642,5.86914 c 2.827456,9.197481 6.535649,18.815103 11.011718,28.539063 -4.533986,9.86835 -8.295182,19.63613 -11.15039,28.9414 -1.92251,-0.55262 -3.783975,-1.13395 -5.576172,-1.74609 -11.017832,-3.76579 -20.118573,-8.65921 -26.355469,-14 -5.604236,-4.79944 -8.433594,-9.56531 -8.433594,-13.43164 0,-8.22778 12.26792,-18.722472 32.726563,-25.855467 2.48237,-0.865531 5.0806,-1.681076 7.777344,-2.447266 z m 125.767582,0.142579 c 2.31142,0.668856 4.55497,1.374671 6.71679,2.11914 20.90951,7.198151 33.66407,17.840594 33.66407,26.041014 0,8.73495 -13.77476,20.07541 -36.14063,27.48632 -1.23556,0.40904 -2.50306,0.80422 -3.79492,1.1875 -2.85964,-9.05308 -6.72035,-18.68098 -11.44336,-28.62694 4.50703,-9.70908 8.21845,-19.212664 10.99805,-28.207034 z m -62.94532,7.984375 c -11.14333,0 -20.17578,9.032059 -20.17578,20.175779 0,11.14334 9.03245,20.17773 20.17578,20.17773 11.14333,0 20.17774,-9.0344 20.17774,-20.17773 0,-11.14373 -9.03441,-20.175779 -20.17774,-20.175779 z m 46.44727,31.410159 c 3.02011,6.88363 5.56644,13.54588 7.58789,19.8789 -6.55141,1.49457 -13.62538,2.6973 -21.07813,3.5918 2.34563,-3.71713 4.66227,-7.55289 6.9375,-11.49805 2.30179,-3.99142 4.48624,-7.98928 6.55274,-11.97265 z m -92.708986,0.34766 c 2.022658,3.90654 4.159167,7.81018 6.40625,11.6914 2.288914,3.95401 4.661596,7.82842 7.095704,11.60546 -7.401262,-0.8257 -14.378985,-1.94478 -20.824219,-3.34764 1.99571,-6.44283 4.451773,-13.1392 7.322265,-19.94922 z m 102.943356,28.82811 c 0.46092,1.85938 0.86993,3.68191 1.22266,5.46486 2.26116,11.42204 2.58568,21.74932 1.08789,29.82226 -1.34576,7.25407 -4.05214,12.09036 -7.39844,14.02735 -7.12092,4.12172 -22.35046,-1.23669 -38.77343,-15.36914 -1.8827,-1.62006 -3.77925,-3.34888 -5.68164,-5.17969 6.3668,-6.96326 12.73105,-15.05848 18.9414,-24.04883 10.92332,-0.9693 21.2428,-2.55337 30.60156,-4.71681 z m -112.873043,0.43164 c 9.256202,2.04679 19.499757,3.5186 30.449223,4.40625 6.25217,8.7973 12.80077,16.88453 19.39843,23.96485 -1.44148,1.39161 -2.87883,2.71642 -4.30664,3.96484 -8.76672,7.66309 -17.55064,13.09943 -25.292966,15.83399 -6.957234,2.45702 -12.498146,2.52706 -15.847656,0.5957 -7.127364,-4.11088 -10.090524,-19.97771 -6.048829,-41.26367 0.462932,-2.43773 1.013367,-4.94236 1.648438,-7.50196 z m 69.832033,5.10938 c -4.40006,5.97908 -8.84345,11.44778 -13.26563,16.31641 -4.575,-4.9362 -9.13893,-10.39819 -13.5957,-16.27149 4.32646,0.16973 8.7378,0.25781 13.2207,0.25781 4.60559,0 9.15932,-0.10324 13.64063,-0.30273 z" />
</svg>
