<?xml version="1.0" encoding="UTF-8" standalone="no"?>
<svg 
   xmlns="http://www.w3.org/2000/svg"
   xmlns:dc="http://purl.org/dc/elements/1.1/"
   xmlns:cc="http://creativecommons.org/ns#"
   xmlns:rdf="http://www.w3.org/1999/02/22-rdf-syntax-ns#"
   xmlns:svg="http://www.w3.org/2000/svg"
   xmlns:xlink="http://www.w3.org/1999/xlink"
   viewBox="0 0 512 512"
   width="512"
   height="512">
   <defs>
      <linearGradient id="grad" x1="100%" y1="50%" x2="0%" y2="50%">
         <stop offset="0" stop-color="#fd5d92"/>
         <stop offset="1" stop-color="#ff0000"/>
      </linearGradient>
   </defs>
   <circle cx="256" cy="256" r="256" fill="url(#grad)"/>
   <path fill="#fff" d="M251 58.7c-4.6.1-20.8 2-29.3 3.7-28.3 5.4-66.9 22.6-73 32.7-1.9 3.1-2 7.2-2 160.8 0 152.3.1 157.7 1.9 160.7 5.2 8.5 36.7 23.7 63.5 30.5 9.8 2.5 34.3 6.3 38.5 6 2-.2 2-1 2.3-73.1.1-40.8.7-73.3 1.2-73.8 1.4-1.4 7.3 1.9 10.4 5.7 1.5 1.8 13.8 20.7 27.4 41.8 51.4 80 50.5 78.5 53.3 79.2 3.3.8 12.6-3.8 27.6-13.8 14.2-9.5 23.9-17.8 34.8-30 11.3-12.6 14.8-17.4 14.8-20.3 0-1.2-15-24.5-33.4-52-18.4-27.4-34.1-51.2-35-52.9-.9-1.7-1.5-4.1-1.5-5.4 0-1.3 12.5-22.3 28.5-47.9 44.5-71.1 41.9-66.3 38.8-72.8-2.6-5.4-15.4-19.7-26.1-29.1-11.5-10.1-35.1-26-39.9-26.9-2.9-.6-4-.3-5.9 1.7-1.3 1.3-20.4 32.3-42.3 68.9-22 36.6-41.1 68-42.4 69.8-2.6 3.6-6.7 6.1-8.7 5.4-1-.4-1.3-18.2-1.3-84.4 0-49.5-.4-84.2-.9-84.6-.1-.1-.5-.1-1.2-.1z"/>
</svg>